<svg xmlns="http://www.w3.org/2000/svg" xmlns:v="https://svgstorm.com"
viewBox = "0 0 512 512"
width="512"
height="512">
<g fill="None" fill-opacity="0.0" stroke="#000000" stroke-opacity="0.00" stroke-width="0.3"><path d="
M 0.00 440.00 
C 8.16 432.13 18.17 425.40 27.23 418.23 C 36.09 409.64 52.64 404.78 48.00 389.00 C 48.00 306.00 48.00 223.00 48.00 140.00 C 46.84 112.53 44.58 78.80 73.08 65.08 C 101.91 54.38 135.95 62.57 167.00 60.00 C 266.67 60.00 366.33 60.00 466.00 60.00 C 480.84 62.26 500.12 55.23 512.00 64.00
L 512.00 0.00
L 0.00 0.00
L 0.00 440.00 Z"/>
</g>
<g fill="None" fill-opacity="0.0" stroke="#2D4356" stroke-opacity="0.99" stroke-width="0.3"><path d="
M 0.00 440.00 
L 0.00 448.00
C 11.61 456.75 30.49 449.75 45.00 452.00 C 161.33 452.00 277.67 452.00 394.00 452.00 C 421.02 455.78 452.30 448.81 461.77 420.77 C 466.89 372.57 462.57 322.09 464.00 273.00 C 464.00 223.33 464.00 173.67 464.00 124.00 C 459.22 108.19 474.87 102.59 484.25 94.25 C 493.41 86.85 503.74 79.99 512.00 72.00
L 512.00 64.00
C 500.12 55.23 480.84 62.26 466.00 60.00 C 366.33 60.00 266.67 60.00 167.00 60.00 C 135.95 62.57 101.91 54.38 73.08 65.08 C 44.58 78.80 46.84 112.53 48.00 140.00 C 48.00 223.00 48.00 306.00 48.00 389.00 C 52.64 404.78 36.09 409.64 27.23 418.23 C 18.17 425.40 8.16 432.13 0.00 440.00
M 469.00 85.00 
C 457.04 93.49 442.90 102.56 448.00 120.00 C 448.00 214.33 448.00 308.67 448.00 403.00
C 447.52 444.48 398.15 435.94 369.00 436.00 C 256.83 435.33 143.35 437.33 32.00 435.00
C 36.17 433.10 39.13 429.35 43.00 427.00
C 55.05 418.65 69.04 409.34 64.00 392.00 C 64.00 298.33 64.00 204.67 64.00 111.00
C 61.07 80.77 94.26 71.25 119.00 76.00 C 239.17 76.67 360.65 74.67 480.00 77.00
C 475.99 79.22 472.98 82.82 469.00 85.00 Z"/>
</g>
<g fill="None" fill-opacity="0.0" stroke="#000000" stroke-opacity="0.00" stroke-width="0.3"><path d="
M 0.00 448.00 
L 0.00 512.00
L 512.00 512.00
L 512.00 72.00
C 503.74 79.99 493.41 86.85 484.25 94.25 C 474.87 102.59 459.22 108.19 464.00 124.00 C 464.00 173.67 464.00 223.33 464.00 273.00 C 462.57 322.09 466.89 372.57 461.77 420.77 C 452.30 448.81 421.02 455.78 394.00 452.00 C 277.67 452.00 161.33 452.00 45.00 452.00 C 30.49 449.75 11.61 456.75 0.00 448.00 Z"/>
</g>
<g fill="None" fill-opacity="0.0" stroke="#B6DFA6" stroke-opacity="1.00" stroke-width="0.3"><path d="
M 64.00 111.00 
C 71.27 73.87 116.51 85.61 145.00 84.00 C 252.84 84.67 361.99 82.67 469.00 85.00
C 472.98 82.82 475.99 79.22 480.00 77.00
C 360.65 74.67 239.17 76.67 119.00 76.00 C 94.26 71.25 61.07 80.77 64.00 111.00 Z"/>
</g>
<g fill="None" fill-opacity="0.0" stroke="#97DF7D" stroke-opacity="1.00" stroke-width="0.3"><path d="
M 64.00 111.00 
C 64.00 204.67 64.00 298.33 64.00 392.00 C 69.04 409.34 55.05 418.65 43.00 427.00
C 149.43 429.33 257.82 427.33 365.00 428.00 C 393.80 425.79 437.76 438.67 448.00 403.00
C 448.00 308.67 448.00 214.33 448.00 120.00 C 442.90 102.56 457.04 93.49 469.00 85.00
C 361.99 82.67 252.84 84.67 145.00 84.00 C 116.51 85.61 71.27 73.87 64.00 111.00
M 117.00 156.00 
C 119.97 175.55 155.62 164.86 150.23 184.23 C 136.74 193.60 117.07 181.79 106.75 170.25 C 96.31 156.59 91.81 135.73 99.77 119.77 C 108.05 104.08 132.55 104.67 140.77 120.23 C 150.97 136.19 135.59 158.53 117.00 156.00
M 181.00 156.00 
C 183.97 175.55 219.62 164.86 214.23 184.23 C 200.74 193.60 181.07 181.79 170.75 170.25 C 160.31 156.59 155.81 135.73 163.77 119.77 C 172.05 104.08 196.55 104.67 204.77 120.23 C 214.97 136.19 199.59 158.53 181.00 156.00
M 400.00 308.00 
C 385.16 306.42 370.19 311.16 361.00 323.00
C 348.11 310.78 328.66 302.95 311.32 311.32 C 294.95 319.04 284.32 338.10 289.00 356.00
C 289.60 358.67 290.41 361.29 291.00 364.00
C 292.17 367.28 296.07 370.06 296.00 374.00
C 283.88 383.15 267.18 379.30 252.00 380.00 C 202.01 379.48 151.38 381.04 101.78 379.22 C 89.76 370.10 98.82 349.01 96.00 335.00 C 96.00 284.33 96.00 233.67 96.00 183.00
C 101.00 187.93 106.84 191.92 112.00 196.00
C 128.35 204.53 156.95 210.95 166.00 189.00
C 180.91 199.77 201.63 208.94 220.08 201.08 C 238.56 190.42 233.66 164.00 216.00 156.00
C 218.25 153.65 218.75 150.07 221.00 148.00
C 222.34 142.78 224.65 137.76 224.00 132.00
C 286.27 132.62 349.21 130.76 411.07 132.93 C 421.36 142.68 413.57 161.52 416.00 175.00 C 416.00 222.00 416.00 269.00 416.00 316.00
C 411.40 311.73 405.03 310.65 400.00 308.00
M 331.00 372.00 
C 312.79 374.48 297.27 352.84 306.92 336.92 C 314.58 321.00 338.99 319.82 347.92 335.08 C 356.23 350.94 351.89 371.84 341.70 385.70 C 331.40 397.78 312.53 408.78 298.10 400.90 C 291.03 380.76 328.22 391.84 331.00 372.00
M 395.00 372.00 
C 376.79 374.48 361.27 352.84 370.92 336.92 C 378.58 321.00 402.99 319.82 411.92 335.08 C 420.23 350.94 415.89 371.84 405.70 385.70 C 395.40 397.78 376.53 408.78 362.10 400.90 C 355.04 380.76 392.22 391.84 395.00 372.00 Z"/>
</g>
<g fill="None" fill-opacity="0.0" stroke="#2D4456" stroke-opacity="1.00" stroke-width="0.3"><path d="
M 117.00 156.00 
C 135.59 158.53 150.97 136.19 140.77 120.23 C 132.55 104.67 108.05 104.08 99.77 119.77 C 91.81 135.73 96.31 156.59 106.75 170.25 C 117.07 181.79 136.74 193.60 150.23 184.23 C 155.62 164.86 119.97 175.55 117.00 156.00
M 123.00 124.00 
C 132.13 127.73 127.41 143.36 117.33 139.67 C 107.36 136.46 112.87 120.65 123.00 124.00 Z"/>
</g>
<g fill="None" fill-opacity="0.0" stroke="#2D4456" stroke-opacity="1.00" stroke-width="0.3"><path d="
M 181.00 156.00 
C 199.59 158.53 214.97 136.19 204.77 120.23 C 196.55 104.67 172.05 104.08 163.77 119.77 C 155.81 135.73 160.31 156.59 170.75 170.25 C 181.07 181.79 200.74 193.60 214.23 184.23 C 219.62 164.86 183.97 175.55 181.00 156.00
M 187.00 124.00 
C 196.13 127.73 191.41 143.36 181.33 139.67 C 171.36 136.46 176.87 120.65 187.00 124.00 Z"/>
</g>
<g fill="None" fill-opacity="0.0" stroke="#D18852" stroke-opacity="1.00" stroke-width="0.3"><path d="
M 123.00 124.00 
C 112.87 120.65 107.36 136.46 117.33 139.67 C 127.41 143.36 132.13 127.73 123.00 124.00 Z"/>
</g>
<g fill="None" fill-opacity="0.0" stroke="#D18852" stroke-opacity="1.00" stroke-width="0.3"><path d="
M 187.00 124.00 
C 176.87 120.65 171.36 136.46 181.33 139.67 C 191.41 143.36 196.13 127.73 187.00 124.00 Z"/>
</g>
<g fill="None" fill-opacity="0.0" stroke="#2D4356" stroke-opacity="1.00" stroke-width="0.3"><path d="
M 221.00 148.00 
C 280.67 148.00 340.33 148.00 400.00 148.00
C 400.00 150.67 400.00 153.33 400.00 156.00
C 400.00 206.67 400.00 257.33 400.00 308.00
C 405.03 310.65 411.40 311.73 416.00 316.00
C 416.00 269.00 416.00 222.00 416.00 175.00 C 413.57 161.52 421.36 142.68 411.07 132.93 C 349.21 130.76 286.27 132.62 224.00 132.00
C 224.65 137.76 222.34 142.78 221.00 148.00 Z"/>
</g>
<g fill="None" fill-opacity="0.0" stroke="#FBE4A8" stroke-opacity="1.00" stroke-width="0.3"><path d="
M 216.00 156.00 
C 277.33 156.00 338.67 156.00 400.00 156.00
C 400.00 153.33 400.00 150.67 400.00 148.00
C 340.33 148.00 280.67 148.00 221.00 148.00
C 218.75 150.07 218.25 153.65 216.00 156.00 Z"/>
</g>
<g fill="None" fill-opacity="0.0" stroke="#FEDA7F" stroke-opacity="1.00" stroke-width="0.3"><path d="
M 112.00 196.00 
C 112.00 249.33 112.00 302.67 112.00 356.00
C 171.00 356.00 230.00 356.00 289.00 356.00
C 284.32 338.10 294.95 319.04 311.32 311.32 C 328.66 302.95 348.11 310.78 361.00 323.00
C 370.19 311.16 385.16 306.42 400.00 308.00
C 400.00 257.33 400.00 206.67 400.00 156.00
C 338.67 156.00 277.33 156.00 216.00 156.00
C 233.66 164.00 238.56 190.42 220.08 201.08 C 201.63 208.94 180.91 199.77 166.00 189.00
C 156.95 210.95 128.35 204.53 112.00 196.00
M 350.00 216.00 
C 364.88 224.87 346.80 236.91 335.00 232.00 C 277.47 231.78 219.73 232.44 162.33 231.67 C 146.69 223.62 165.40 210.84 177.00 216.00 C 234.67 216.00 292.33 216.00 350.00 216.00
M 350.00 248.00 
C 364.88 256.87 346.80 268.91 335.00 264.00 C 277.47 263.78 219.73 264.44 162.33 263.67 C 146.69 255.62 165.40 242.84 177.00 248.00 C 234.67 248.00 292.33 248.00 350.00 248.00
M 350.00 280.00 
C 364.88 288.87 346.80 300.91 335.00 296.00 C 277.47 295.78 219.73 296.44 162.33 295.67 C 146.69 287.62 165.40 274.84 177.00 280.00 C 234.67 280.00 292.33 280.00 350.00 280.00 Z"/>
</g>
<g fill="None" fill-opacity="0.0" stroke="#2D4356" stroke-opacity="1.00" stroke-width="0.3"><path d="
M 291.00 364.00 
C 231.33 364.00 171.67 364.00 112.00 364.00
C 112.00 361.33 112.00 358.67 112.00 356.00
C 112.00 302.67 112.00 249.33 112.00 196.00
C 106.84 191.92 101.00 187.93 96.00 183.00
C 96.00 233.67 96.00 284.33 96.00 335.00 C 98.82 349.01 89.76 370.10 101.78 379.22 C 151.38 381.04 202.01 379.48 252.00 380.00 C 267.18 379.30 283.88 383.15 296.00 374.00
C 296.07 370.06 292.17 367.28 291.00 364.00 Z"/>
</g>
<g fill="None" fill-opacity="0.0" stroke="#2D4356" stroke-opacity="1.00" stroke-width="0.3"><path d="
M 350.00 216.00 
C 292.33 216.00 234.67 216.00 177.00 216.00 C 165.40 210.84 146.69 223.62 162.33 231.67 C 219.73 232.44 277.47 231.78 335.00 232.00 C 346.80 236.91 364.88 224.87 350.00 216.00 Z"/>
</g>
<g fill="None" fill-opacity="0.0" stroke="#2D4356" stroke-opacity="1.00" stroke-width="0.3"><path d="
M 350.00 248.00 
C 292.33 248.00 234.67 248.00 177.00 248.00 C 165.40 242.84 146.69 255.62 162.33 263.67 C 219.73 264.44 277.47 263.78 335.00 264.00 C 346.80 268.91 364.88 256.87 350.00 248.00 Z"/>
</g>
<g fill="None" fill-opacity="0.0" stroke="#2D4356" stroke-opacity="1.00" stroke-width="0.3"><path d="
M 350.00 280.00 
C 292.33 280.00 234.67 280.00 177.00 280.00 C 165.40 274.84 146.69 287.62 162.33 295.67 C 219.73 296.44 277.47 295.78 335.00 296.00 C 346.80 300.91 364.88 288.87 350.00 280.00 Z"/>
</g>
<g fill="None" fill-opacity="0.0" stroke="#2D4456" stroke-opacity="1.00" stroke-width="0.3"><path d="
M 331.00 372.00 
C 328.22 391.84 291.03 380.76 298.10 400.90 C 312.53 408.78 331.40 397.78 341.70 385.70 C 351.89 371.84 356.23 350.94 347.92 335.08 C 338.99 319.82 314.58 321.00 306.92 336.92 C 297.27 352.84 312.79 374.48 331.00 372.00
M 331.00 340.00 
C 340.13 343.73 335.41 359.36 325.33 355.67 C 315.36 352.46 320.87 336.65 331.00 340.00 Z"/>
</g>
<g fill="None" fill-opacity="0.0" stroke="#2D4456" stroke-opacity="1.00" stroke-width="0.3"><path d="
M 395.00 372.00 
C 392.22 391.84 355.04 380.76 362.10 400.90 C 376.53 408.78 395.40 397.78 405.70 385.70 C 415.89 371.84 420.23 350.94 411.92 335.08 C 402.99 319.82 378.58 321.00 370.92 336.92 C 361.27 352.84 376.79 374.48 395.00 372.00
M 395.00 340.00 
C 404.13 343.73 399.41 359.36 389.33 355.67 C 379.36 352.46 384.87 336.65 395.00 340.00 Z"/>
</g>
<g fill="None" fill-opacity="0.0" stroke="#D18852" stroke-opacity="1.00" stroke-width="0.3"><path d="
M 331.00 340.00 
C 320.87 336.65 315.36 352.46 325.33 355.67 C 335.41 359.36 340.13 343.73 331.00 340.00 Z"/>
</g>
<g fill="None" fill-opacity="0.0" stroke="#D18852" stroke-opacity="1.00" stroke-width="0.3"><path d="
M 395.00 340.00 
C 384.87 336.65 379.36 352.46 389.33 355.67 C 399.41 359.36 404.13 343.73 395.00 340.00 Z"/>
</g>
<g fill="None" fill-opacity="0.0" stroke="#D9BA6E" stroke-opacity="1.00" stroke-width="0.3"><path d="
M 291.00 364.00 
C 290.41 361.29 289.60 358.67 289.00 356.00
C 230.00 356.00 171.00 356.00 112.00 356.00
C 112.00 358.67 112.00 361.33 112.00 364.00
C 171.67 364.00 231.33 364.00 291.00 364.00 Z"/>
</g>
<g fill="None" fill-opacity="0.0" stroke="#82C36A" stroke-opacity="1.00" stroke-width="0.3"><path d="
M 43.00 427.00 
C 39.13 429.35 36.17 433.10 32.00 435.00
C 143.35 437.33 256.83 435.33 369.00 436.00 C 398.15 435.94 447.52 444.48 448.00 403.00
C 437.76 438.67 393.80 425.79 365.00 428.00 C 257.82 427.33 149.43 429.33 43.00 427.00 Z"/>
</g>
<g fill="#000000" fill-opacity="0.00" stroke="None">
<path d="
M 0.00 440.00 
C 8.16 432.13 18.17 425.40 27.23 418.23 C 36.09 409.64 52.64 404.78 48.00 389.00 C 48.00 306.00 48.00 223.00 48.00 140.00 C 46.84 112.53 44.58 78.80 73.08 65.08 C 101.91 54.38 135.95 62.57 167.00 60.00 C 266.67 60.00 366.33 60.00 466.00 60.00 C 480.84 62.26 500.12 55.23 512.00 64.00
L 512.00 0.00
L 0.00 0.00
L 0.00 440.00 Z"/>
</g>
<g fill="#2D4356" fill-opacity="0.99" stroke="None">
<path d="
M 0.00 440.00 
L 0.00 448.00
C 11.61 456.75 30.49 449.75 45.00 452.00 C 161.33 452.00 277.67 452.00 394.00 452.00 C 421.02 455.78 452.30 448.81 461.77 420.77 C 466.89 372.57 462.57 322.09 464.00 273.00 C 464.00 223.33 464.00 173.67 464.00 124.00 C 459.22 108.19 474.87 102.59 484.25 94.25 C 493.41 86.85 503.74 79.99 512.00 72.00
L 512.00 64.00
C 500.12 55.23 480.84 62.26 466.00 60.00 C 366.33 60.00 266.67 60.00 167.00 60.00 C 135.95 62.57 101.91 54.38 73.08 65.08 C 44.58 78.80 46.84 112.53 48.00 140.00 C 48.00 223.00 48.00 306.00 48.00 389.00 C 52.64 404.78 36.09 409.64 27.23 418.23 C 18.17 425.40 8.16 432.13 0.00 440.00
M 469.00 85.00 
C 457.04 93.49 442.90 102.56 448.00 120.00 C 448.00 214.33 448.00 308.67 448.00 403.00
C 447.52 444.48 398.15 435.94 369.00 436.00 C 256.83 435.33 143.35 437.33 32.00 435.00
C 36.17 433.10 39.13 429.35 43.00 427.00
C 55.05 418.65 69.04 409.34 64.00 392.00 C 64.00 298.33 64.00 204.67 64.00 111.00
C 61.07 80.77 94.26 71.25 119.00 76.00 C 239.17 76.67 360.65 74.67 480.00 77.00
C 475.99 79.22 472.98 82.82 469.00 85.00 Z"/>
</g>
<g fill="#000000" fill-opacity="0.00" stroke="None">
<path d="
M 0.00 448.00 
L 0.00 512.00
L 512.00 512.00
L 512.00 72.00
C 503.74 79.99 493.41 86.85 484.25 94.25 C 474.87 102.59 459.22 108.19 464.00 124.00 C 464.00 173.67 464.00 223.33 464.00 273.00 C 462.57 322.09 466.89 372.57 461.77 420.77 C 452.30 448.81 421.02 455.78 394.00 452.00 C 277.67 452.00 161.33 452.00 45.00 452.00 C 30.49 449.75 11.61 456.75 0.00 448.00 Z"/>
</g>
<g fill="#B6DFA6" fill-opacity="1.00" stroke="None">
<path d="
M 64.00 111.00 
C 71.27 73.87 116.51 85.61 145.00 84.00 C 252.84 84.67 361.99 82.67 469.00 85.00
C 472.98 82.82 475.99 79.22 480.00 77.00
C 360.65 74.67 239.17 76.67 119.00 76.00 C 94.26 71.25 61.07 80.77 64.00 111.00 Z"/>
</g>
<g fill="#97DF7D" fill-opacity="1.00" stroke="None">
<path d="
M 64.00 111.00 
C 64.00 204.67 64.00 298.33 64.00 392.00 C 69.04 409.34 55.05 418.65 43.00 427.00
C 149.43 429.33 257.82 427.33 365.00 428.00 C 393.80 425.79 437.76 438.67 448.00 403.00
C 448.00 308.67 448.00 214.33 448.00 120.00 C 442.90 102.56 457.04 93.49 469.00 85.00
C 361.99 82.67 252.84 84.67 145.00 84.00 C 116.51 85.61 71.27 73.87 64.00 111.00
M 117.00 156.00 
C 119.97 175.55 155.62 164.86 150.23 184.23 C 136.74 193.60 117.07 181.79 106.75 170.25 C 96.31 156.59 91.81 135.73 99.77 119.77 C 108.05 104.08 132.55 104.67 140.77 120.23 C 150.97 136.19 135.59 158.53 117.00 156.00
M 181.00 156.00 
C 183.97 175.55 219.62 164.86 214.23 184.23 C 200.74 193.60 181.07 181.79 170.75 170.25 C 160.31 156.59 155.81 135.73 163.77 119.77 C 172.05 104.08 196.55 104.67 204.77 120.23 C 214.97 136.19 199.59 158.53 181.00 156.00
M 400.00 308.00 
C 385.16 306.42 370.19 311.16 361.00 323.00
C 348.11 310.78 328.66 302.95 311.32 311.32 C 294.95 319.04 284.32 338.10 289.00 356.00
C 289.60 358.67 290.41 361.29 291.00 364.00
C 292.17 367.28 296.07 370.06 296.00 374.00
C 283.88 383.15 267.18 379.30 252.00 380.00 C 202.01 379.48 151.38 381.04 101.78 379.22 C 89.76 370.10 98.82 349.01 96.00 335.00 C 96.00 284.33 96.00 233.67 96.00 183.00
C 101.00 187.93 106.84 191.92 112.00 196.00
C 128.35 204.53 156.95 210.95 166.00 189.00
C 180.91 199.77 201.63 208.94 220.08 201.08 C 238.56 190.42 233.66 164.00 216.00 156.00
C 218.25 153.65 218.75 150.07 221.00 148.00
C 222.34 142.78 224.65 137.76 224.00 132.00
C 286.27 132.62 349.21 130.76 411.07 132.93 C 421.36 142.68 413.57 161.52 416.00 175.00 C 416.00 222.00 416.00 269.00 416.00 316.00
C 411.40 311.73 405.03 310.65 400.00 308.00
M 331.00 372.00 
C 312.79 374.48 297.27 352.84 306.92 336.92 C 314.58 321.00 338.99 319.82 347.92 335.08 C 356.23 350.94 351.89 371.84 341.70 385.70 C 331.40 397.78 312.53 408.78 298.10 400.90 C 291.03 380.76 328.22 391.84 331.00 372.00
M 395.00 372.00 
C 376.79 374.48 361.27 352.84 370.92 336.92 C 378.58 321.00 402.99 319.82 411.92 335.08 C 420.23 350.94 415.89 371.84 405.70 385.70 C 395.40 397.78 376.53 408.78 362.10 400.90 C 355.04 380.76 392.22 391.84 395.00 372.00 Z"/>
</g>
<g fill="#2D4456" fill-opacity="1.00" stroke="None">
<path d="
M 117.00 156.00 
C 135.59 158.53 150.97 136.19 140.77 120.23 C 132.55 104.67 108.05 104.08 99.77 119.77 C 91.81 135.73 96.31 156.59 106.75 170.25 C 117.07 181.79 136.74 193.60 150.23 184.23 C 155.62 164.86 119.97 175.55 117.00 156.00
M 123.00 124.00 
C 132.13 127.73 127.41 143.36 117.33 139.67 C 107.36 136.46 112.87 120.65 123.00 124.00 Z"/>
</g>
<g fill="#2D4456" fill-opacity="1.00" stroke="None">
<path d="
M 181.00 156.00 
C 199.59 158.53 214.97 136.19 204.77 120.23 C 196.55 104.67 172.05 104.08 163.77 119.77 C 155.81 135.73 160.31 156.59 170.75 170.25 C 181.07 181.79 200.74 193.60 214.23 184.23 C 219.62 164.86 183.97 175.55 181.00 156.00
M 187.00 124.00 
C 196.13 127.73 191.41 143.36 181.33 139.67 C 171.36 136.46 176.87 120.65 187.00 124.00 Z"/>
</g>
<g fill="#D18852" fill-opacity="1.00" stroke="None">
<path d="
M 123.00 124.00 
C 112.87 120.65 107.36 136.46 117.33 139.67 C 127.41 143.36 132.13 127.73 123.00 124.00 Z"/>
</g>
<g fill="#D18852" fill-opacity="1.00" stroke="None">
<path d="
M 187.00 124.00 
C 176.87 120.65 171.36 136.46 181.33 139.67 C 191.41 143.36 196.13 127.73 187.00 124.00 Z"/>
</g>
<g fill="#2D4356" fill-opacity="1.00" stroke="None">
<path d="
M 221.00 148.00 
C 280.67 148.00 340.33 148.00 400.00 148.00
C 400.00 150.67 400.00 153.33 400.00 156.00
C 400.00 206.67 400.00 257.33 400.00 308.00
C 405.03 310.65 411.40 311.73 416.00 316.00
C 416.00 269.00 416.00 222.00 416.00 175.00 C 413.57 161.52 421.36 142.68 411.07 132.93 C 349.21 130.76 286.27 132.62 224.00 132.00
C 224.65 137.76 222.34 142.78 221.00 148.00 Z"/>
</g>
<g fill="#FBE4A8" fill-opacity="1.00" stroke="None">
<path d="
M 216.00 156.00 
C 277.33 156.00 338.67 156.00 400.00 156.00
C 400.00 153.33 400.00 150.67 400.00 148.00
C 340.33 148.00 280.67 148.00 221.00 148.00
C 218.75 150.07 218.25 153.65 216.00 156.00 Z"/>
</g>
<g fill="#FEDA7F" fill-opacity="1.00" stroke="None">
<path d="
M 112.00 196.00 
C 112.00 249.33 112.00 302.67 112.00 356.00
C 171.00 356.00 230.00 356.00 289.00 356.00
C 284.32 338.10 294.95 319.04 311.32 311.32 C 328.66 302.95 348.11 310.78 361.00 323.00
C 370.19 311.16 385.16 306.42 400.00 308.00
C 400.00 257.33 400.00 206.67 400.00 156.00
C 338.67 156.00 277.33 156.00 216.00 156.00
C 233.66 164.00 238.56 190.42 220.08 201.08 C 201.63 208.94 180.91 199.77 166.00 189.00
C 156.95 210.95 128.35 204.53 112.00 196.00
M 350.00 216.00 
C 364.88 224.87 346.80 236.91 335.00 232.00 C 277.47 231.78 219.73 232.44 162.33 231.67 C 146.69 223.62 165.40 210.84 177.00 216.00 C 234.67 216.00 292.33 216.00 350.00 216.00
M 350.00 248.00 
C 364.88 256.87 346.80 268.91 335.00 264.00 C 277.47 263.78 219.73 264.44 162.33 263.67 C 146.69 255.62 165.40 242.84 177.00 248.00 C 234.67 248.00 292.33 248.00 350.00 248.00
M 350.00 280.00 
C 364.88 288.87 346.80 300.91 335.00 296.00 C 277.47 295.78 219.73 296.44 162.33 295.67 C 146.69 287.62 165.40 274.84 177.00 280.00 C 234.67 280.00 292.33 280.00 350.00 280.00 Z"/>
</g>
<g fill="#2D4356" fill-opacity="1.00" stroke="None">
<path d="
M 291.00 364.00 
C 231.33 364.00 171.67 364.00 112.00 364.00
C 112.00 361.33 112.00 358.67 112.00 356.00
C 112.00 302.67 112.00 249.33 112.00 196.00
C 106.84 191.92 101.00 187.93 96.00 183.00
C 96.00 233.67 96.00 284.33 96.00 335.00 C 98.82 349.01 89.76 370.10 101.78 379.22 C 151.38 381.04 202.01 379.48 252.00 380.00 C 267.18 379.30 283.88 383.15 296.00 374.00
C 296.07 370.06 292.17 367.28 291.00 364.00 Z"/>
</g>
<g fill="#2D4356" fill-opacity="1.00" stroke="None">
<path d="
M 350.00 216.00 
C 292.33 216.00 234.67 216.00 177.00 216.00 C 165.40 210.84 146.69 223.62 162.33 231.67 C 219.73 232.44 277.47 231.78 335.00 232.00 C 346.80 236.91 364.88 224.87 350.00 216.00 Z"/>
</g>
<g fill="#2D4356" fill-opacity="1.00" stroke="None">
<path d="
M 350.00 248.00 
C 292.33 248.00 234.67 248.00 177.00 248.00 C 165.40 242.84 146.69 255.62 162.33 263.67 C 219.73 264.44 277.47 263.78 335.00 264.00 C 346.80 268.91 364.88 256.87 350.00 248.00 Z"/>
</g>
<g fill="#2D4356" fill-opacity="1.00" stroke="None">
<path d="
M 350.00 280.00 
C 292.33 280.00 234.67 280.00 177.00 280.00 C 165.40 274.84 146.69 287.62 162.33 295.67 C 219.73 296.44 277.47 295.78 335.00 296.00 C 346.80 300.91 364.88 288.87 350.00 280.00 Z"/>
</g>
<g fill="#2D4456" fill-opacity="1.00" stroke="None">
<path d="
M 331.00 372.00 
C 328.22 391.84 291.03 380.76 298.10 400.90 C 312.53 408.78 331.40 397.78 341.70 385.70 C 351.89 371.84 356.23 350.94 347.92 335.08 C 338.99 319.82 314.58 321.00 306.92 336.92 C 297.27 352.84 312.79 374.48 331.00 372.00
M 331.00 340.00 
C 340.13 343.73 335.41 359.36 325.33 355.67 C 315.36 352.46 320.87 336.65 331.00 340.00 Z"/>
</g>
<g fill="#2D4456" fill-opacity="1.00" stroke="None">
<path d="
M 395.00 372.00 
C 392.22 391.84 355.04 380.76 362.10 400.90 C 376.53 408.78 395.40 397.78 405.70 385.70 C 415.89 371.84 420.23 350.94 411.92 335.08 C 402.99 319.82 378.58 321.00 370.92 336.92 C 361.27 352.84 376.79 374.48 395.00 372.00
M 395.00 340.00 
C 404.13 343.73 399.41 359.36 389.33 355.67 C 379.36 352.46 384.87 336.65 395.00 340.00 Z"/>
</g>
<g fill="#D18852" fill-opacity="1.00" stroke="None">
<path d="
M 331.00 340.00 
C 320.87 336.65 315.36 352.46 325.33 355.67 C 335.41 359.36 340.13 343.73 331.00 340.00 Z"/>
</g>
<g fill="#D18852" fill-opacity="1.00" stroke="None">
<path d="
M 395.00 340.00 
C 384.87 336.65 379.36 352.46 389.33 355.67 C 399.41 359.36 404.13 343.73 395.00 340.00 Z"/>
</g>
<g fill="#D9BA6E" fill-opacity="1.00" stroke="None">
<path d="
M 291.00 364.00 
C 290.41 361.29 289.60 358.67 289.00 356.00
C 230.00 356.00 171.00 356.00 112.00 356.00
C 112.00 358.67 112.00 361.33 112.00 364.00
C 171.67 364.00 231.33 364.00 291.00 364.00 Z"/>
</g>
<g fill="#82C36A" fill-opacity="1.00" stroke="None">
<path d="
M 43.00 427.00 
C 39.13 429.35 36.17 433.10 32.00 435.00
C 143.35 437.33 256.83 435.33 369.00 436.00 C 398.15 435.94 447.52 444.48 448.00 403.00
C 437.76 438.67 393.80 425.79 365.00 428.00 C 257.82 427.33 149.43 429.33 43.00 427.00 Z"/>
</g>
</svg>