<svg xmlns="http://www.w3.org/2000/svg" xmlns:v="https://svgstorm.com"
viewBox = "0 0 512 512"
width="512"
height="512">
<g fill="None" fill-opacity="0.0" stroke="#000000" stroke-opacity="0.01" stroke-width="0.3"><path d="
M 0.00 208.00 
C 2.45 185.05 15.79 161.23 37.70 150.70 C 63.60 136.57 95.68 143.79 125.00 142.00
C 125.00 127.33 125.00 112.67 125.00 98.00
C 103.78 102.00 73.77 96.02 80.00 68.00 C 79.39 48.07 75.16 14.36 104.00 16.00 C 205.00 16.00 306.00 16.00 407.00 16.00 C 435.95 13.40 433.14 46.91 432.00 67.00 C 438.69 95.35 408.79 102.34 387.00 98.00
C 387.00 112.67 387.00 127.33 387.00 142.00
C 416.13 143.75 447.78 136.75 473.70 150.31 C 495.89 160.87 509.57 184.79 512.00 208.00
L 512.00 0.00
L 0.00 0.00
L 0.00 208.00 Z"/>
</g>
<g fill="None" fill-opacity="0.0" stroke="#000000" stroke-opacity="1.00" stroke-width="0.3"><path d="
M 0.00 208.00 
L 0.00 431.00
C 2.99 462.66 29.77 493.30 63.00 495.00 C 189.50 497.33 317.08 495.33 444.00 496.00 C 477.55 495.38 505.64 467.54 512.00 436.00
L 512.00 208.00
C 509.57 184.79 495.89 160.87 473.70 150.31 C 447.78 136.75 416.13 143.75 387.00 142.00
C 387.00 127.33 387.00 112.67 387.00 98.00
C 408.79 102.34 438.69 95.35 432.00 67.00 C 433.14 46.91 435.95 13.40 407.00 16.00 C 306.00 16.00 205.00 16.00 104.00 16.00 C 75.16 14.36 79.39 48.07 80.00 68.00 C 73.77 96.02 103.78 102.00 125.00 98.00
C 125.00 112.67 125.00 127.33 125.00 142.00
C 95.68 143.79 63.60 136.57 37.70 150.70 C 15.79 161.23 2.45 185.05 0.00 208.00
M 412.00 36.00 
C 412.00 50.00 412.00 64.00 412.00 78.00
C 308.00 78.00 204.00 78.00 100.00 78.00
C 100.00 64.00 100.00 50.00 100.00 36.00
C 204.00 36.00 308.00 36.00 412.00 36.00
M 367.00 142.00 
C 293.00 142.00 219.00 142.00 145.00 142.00
C 143.34 128.41 143.33 111.52 145.00 98.00
C 219.00 98.00 293.00 98.00 367.00 98.00
C 368.66 111.60 368.67 128.48 367.00 142.00
M 447.00 162.00 
C 488.54 166.05 497.31 212.46 492.00 248.00 C 492.00 291.67 492.00 335.33 492.00 379.00 C 493.32 414.01 497.52 462.79 455.93 473.93 C 413.95 478.63 369.83 474.72 327.00 476.00 C 239.67 476.00 152.33 476.00 65.00 476.00 C 23.08 471.89 14.89 425.53 20.00 390.00 C 20.00 346.33 20.00 302.67 20.00 259.00 C 18.71 223.93 14.41 175.39 56.07 164.07 C 98.08 159.42 142.16 163.25 185.00 162.00 C 272.33 162.00 359.67 162.00 447.00 162.00 Z"/>
</g>
<g fill="None" fill-opacity="0.0" stroke="#D1A184" stroke-opacity="1.00" stroke-width="0.3"><path d="
M 412.00 36.00 
C 308.00 36.00 204.00 36.00 100.00 36.00
C 100.00 50.00 100.00 64.00 100.00 78.00
C 204.00 78.00 308.00 78.00 412.00 78.00
C 412.00 64.00 412.00 50.00 412.00 36.00 Z"/>
</g>
<g fill="None" fill-opacity="0.0" stroke="#5B5151" stroke-opacity="1.00" stroke-width="0.3"><path d="
M 145.00 142.00 
C 145.00 127.33 145.00 112.67 145.00 98.00
C 143.33 111.52 143.34 128.41 145.00 142.00 Z"/>
</g>
<g fill="None" fill-opacity="0.0" stroke="#E5CECD" stroke-opacity="1.00" stroke-width="0.3"><path d="
M 145.00 142.00 
C 219.00 142.00 293.00 142.00 367.00 142.00
C 367.00 127.33 367.00 112.67 367.00 98.00
C 293.00 98.00 219.00 98.00 145.00 98.00
C 145.00 112.67 145.00 127.33 145.00 142.00 Z"/>
</g>
<g fill="None" fill-opacity="0.0" stroke="#5C5252" stroke-opacity="1.00" stroke-width="0.3"><path d="
M 367.00 142.00 
C 368.67 128.48 368.66 111.60 367.00 98.00
C 367.00 112.67 367.00 127.33 367.00 142.00 Z"/>
</g>
<g fill="None" fill-opacity="0.0" stroke="#9C99E7" stroke-opacity="1.00" stroke-width="0.3"><path d="
M 447.00 162.00 
C 359.67 162.00 272.33 162.00 185.00 162.00 C 142.16 163.25 98.08 159.42 56.07 164.07 C 14.41 175.39 18.71 223.93 20.00 259.00 C 20.00 302.67 20.00 346.33 20.00 390.00 C 14.89 425.53 23.08 471.89 65.00 476.00 C 152.33 476.00 239.67 476.00 327.00 476.00 C 369.83 474.72 413.95 478.63 455.93 473.93 C 497.52 462.79 493.32 414.01 492.00 379.00 C 492.00 335.33 492.00 291.67 492.00 248.00 C 497.31 212.46 488.54 166.05 447.00 162.00
M 221.00 210.00 
C 229.33 210.00 237.67 210.00 246.00 210.00
C 245.36 197.14 266.62 197.10 266.00 210.00
C 274.33 210.00 282.67 210.00 291.00 210.00
C 294.81 192.14 319.62 202.96 333.00 200.00 C 350.67 200.00 368.33 200.00 386.00 200.00 C 407.23 194.74 400.12 219.07 410.75 228.25 C 418.67 240.62 443.89 231.46 440.00 252.00 C 440.00 287.00 440.00 322.00 440.00 357.00 C 436.93 371.09 447.61 394.66 431.32 401.32 C 417.38 400.93 404.10 412.00 403.07 426.07 C 402.53 446.28 375.17 435.14 362.00 438.00 C 291.67 438.00 221.33 438.00 151.00 438.00 C 137.74 434.83 110.75 446.54 109.00 427.00 C 108.32 413.07 95.61 400.78 81.33 401.67 C 64.37 395.68 74.95 371.98 72.00 358.00 C 72.00 323.00 72.00 288.00 72.00 253.00 C 67.35 232.04 92.23 240.37 100.75 228.75 C 112.23 220.26 104.04 195.35 125.00 200.00 C 142.67 200.00 160.33 200.00 178.00 200.00 C 191.67 203.09 216.92 191.93 221.00 210.00 Z"/>
</g>
<g fill="None" fill-opacity="0.0" stroke="#000000" stroke-opacity="1.00" stroke-width="0.3"><path d="
M 291.00 210.00 
C 291.77 223.65 308.44 219.44 318.00 220.00 C 330.67 220.00 343.33 220.00 356.00 220.00 C 366.03 222.46 384.31 213.75 386.78 227.22 C 389.71 235.61 395.56 244.03 403.70 248.30 C 412.47 253.75 424.51 255.05 420.00 269.00 C 420.00 307.00 420.00 345.00 420.00 383.00
C 410.28 383.91 401.87 389.92 395.25 397.25 C 385.91 402.74 389.40 420.91 376.00 418.00 C 296.33 418.00 216.67 418.00 137.00 418.00 C 123.04 421.77 126.06 403.73 117.25 397.75 C 110.46 390.23 102.03 383.94 92.00 383.00
C 92.00 345.33 92.00 307.67 92.00 270.00 C 87.57 255.81 98.77 253.20 108.70 248.70 C 115.99 243.51 122.09 236.24 124.97 227.97 C 126.80 213.83 144.95 222.25 155.00 220.00 C 167.67 220.00 180.33 220.00 193.00 220.00 C 202.80 219.23 220.06 224.05 221.00 210.00
C 216.92 191.93 191.67 203.09 178.00 200.00 C 160.33 200.00 142.67 200.00 125.00 200.00 C 104.04 195.35 112.23 220.26 100.75 228.75 C 92.23 240.37 67.35 232.04 72.00 253.00 C 72.00 288.00 72.00 323.00 72.00 358.00 C 74.95 371.98 64.37 395.68 81.33 401.67 C 95.61 400.78 108.32 413.07 109.00 427.00 C 110.75 446.54 137.74 434.83 151.00 438.00 C 221.33 438.00 291.67 438.00 362.00 438.00 C 375.17 435.14 402.53 446.28 403.07 426.07 C 404.10 412.00 417.38 400.93 431.32 401.32 C 447.61 394.66 436.93 371.09 440.00 357.00 C 440.00 322.00 440.00 287.00 440.00 252.00 C 443.89 231.46 418.67 240.62 410.75 228.25 C 400.12 219.07 407.23 194.74 386.00 200.00 C 368.33 200.00 350.67 200.00 333.00 200.00 C 319.62 202.96 294.81 192.14 291.00 210.00 Z"/>
</g>
<g fill="None" fill-opacity="0.0" stroke="#000000" stroke-opacity="1.00" stroke-width="0.3"><path d="
M 246.00 210.00 
C 245.36 222.86 266.62 222.90 266.00 210.00
C 266.62 197.10 245.36 197.14 246.00 210.00 Z"/>
</g>
<g fill="None" fill-opacity="0.0" stroke="#FDFDFD" stroke-opacity="1.00" stroke-width="0.3"><path d="
M 291.00 210.00 
C 282.67 210.00 274.33 210.00 266.00 210.00
C 266.62 222.90 245.36 222.86 246.00 210.00
C 237.67 210.00 229.33 210.00 221.00 210.00
C 220.06 224.05 202.80 219.23 193.00 220.00 C 180.33 220.00 167.67 220.00 155.00 220.00 C 144.95 222.25 126.80 213.83 124.97 227.97 C 122.09 236.24 115.99 243.51 108.70 248.70 C 98.77 253.20 87.57 255.81 92.00 270.00 C 92.00 307.67 92.00 345.33 92.00 383.00
C 102.03 383.94 110.46 390.23 117.25 397.75 C 126.06 403.73 123.04 421.77 137.00 418.00 C 216.67 418.00 296.33 418.00 376.00 418.00 C 389.40 420.91 385.91 402.74 395.25 397.25 C 401.87 389.92 410.28 383.91 420.00 383.00
C 420.00 345.00 420.00 307.00 420.00 269.00 C 424.51 255.05 412.47 253.75 403.70 248.30 C 395.56 244.03 389.71 235.61 386.78 227.22 C 384.31 213.75 366.03 222.46 356.00 220.00 C 343.33 220.00 330.67 220.00 318.00 220.00 C 308.44 219.44 291.77 223.65 291.00 210.00
M 168.00 270.00 
C 180.70 282.85 170.93 305.93 174.00 323.00 C 170.72 337.25 183.57 369.53 160.33 367.67 C 147.10 355.40 157.13 331.88 154.00 315.00 C 157.14 300.48 144.61 268.81 168.00 270.00
M 217.00 314.00 
C 214.01 327.93 217.99 345.14 215.00 359.00
C 216.44 370.31 195.63 371.68 196.00 360.00
C 194.34 333.74 194.33 304.19 196.00 278.00
C 204.35 258.26 220.19 281.21 225.75 291.25 C 233.50 303.35 242.15 314.93 250.00 327.00
C 252.33 312.57 250.34 296.18 251.00 281.00 C 249.73 263.15 277.46 269.77 271.00 286.00 C 271.00 302.00 271.00 318.00 271.00 334.00 C 270.44 345.76 275.30 367.45 258.33 367.67 C 240.10 355.09 231.23 331.25 217.00 314.00
M 313.00 296.00 
C 325.75 289.08 341.55 258.22 354.92 278.08 C 351.85 295.46 331.02 304.07 320.00 317.00
C 328.16 326.94 338.32 334.66 347.25 343.75 C 362.60 349.73 358.72 376.08 341.25 365.75 C 331.81 356.88 322.44 347.87 313.00 339.00
C 314.72 350.60 313.61 376.10 296.25 365.75 C 289.04 353.05 294.89 335.59 293.00 321.00 C 293.84 305.54 291.31 289.17 294.31 274.31 C 308.89 259.87 317.03 283.47 313.00 296.00 Z"/>
</g>
<g fill="None" fill-opacity="0.0" stroke="#000000" stroke-opacity="1.00" stroke-width="0.3"><path d="
M 168.00 270.00 
C 144.61 268.81 157.14 300.48 154.00 315.00 C 157.13 331.88 147.10 355.40 160.33 367.67 C 183.57 369.53 170.72 337.25 174.00 323.00 C 170.93 305.93 180.70 282.85 168.00 270.00 Z"/>
</g>
<g fill="None" fill-opacity="0.0" stroke="#000000" stroke-opacity="1.00" stroke-width="0.3"><path d="
M 196.00 278.00 
C 196.00 305.33 196.00 332.67 196.00 360.00
C 195.63 371.68 216.44 370.31 215.00 359.00
C 215.00 343.33 215.00 327.67 215.00 312.00
C 215.83 312.41 216.87 312.97 217.00 314.00
C 231.23 331.25 240.10 355.09 258.33 367.67 C 275.30 367.45 270.44 345.76 271.00 334.00 C 271.00 318.00 271.00 302.00 271.00 286.00 C 277.46 269.77 249.73 263.15 251.00 281.00 C 250.34 296.18 252.33 312.57 250.00 327.00
C 242.15 314.93 233.50 303.35 225.75 291.25 C 220.19 281.21 204.35 258.26 196.00 278.00 Z"/>
</g>
<g fill="None" fill-opacity="0.0" stroke="#000000" stroke-opacity="1.00" stroke-width="0.3"><path d="
M 313.00 296.00 
C 317.03 283.47 308.89 259.87 294.31 274.31 C 291.31 289.17 293.84 305.54 293.00 321.00 C 294.89 335.59 289.04 353.05 296.25 365.75 C 313.61 376.10 314.72 350.60 313.00 339.00
C 322.44 347.87 331.81 356.88 341.25 365.75 C 358.72 376.08 362.60 349.73 347.25 343.75 C 338.32 334.66 328.16 326.94 320.00 317.00
C 331.02 304.07 351.85 295.46 354.92 278.08 C 341.55 258.22 325.75 289.08 313.00 296.00 Z"/>
</g>
<g fill="None" fill-opacity="0.0" stroke="#686868" stroke-opacity="1.00" stroke-width="0.3"><path d="
M 196.00 360.00 
C 196.00 332.67 196.00 305.33 196.00 278.00
C 194.33 304.19 194.34 333.74 196.00 360.00 Z"/>
</g>
<g fill="None" fill-opacity="0.0" stroke="#8C8C8C" stroke-opacity="1.00" stroke-width="0.3"><path d="
M 215.00 359.00 
C 217.99 345.14 214.01 327.93 217.00 314.00
C 216.87 312.97 215.83 312.41 215.00 312.00
C 215.00 327.67 215.00 343.33 215.00 359.00 Z"/>
</g>
<g fill="None" fill-opacity="0.0" stroke="#000000" stroke-opacity="0.01" stroke-width="0.3"><path d="
M 0.00 512.00 
L 512.00 512.00
L 512.00 436.00
C 505.64 467.54 477.55 495.38 444.00 496.00 C 317.08 495.33 189.50 497.33 63.00 495.00 C 29.77 493.30 2.99 462.66 0.00 431.00
L 0.00 512.00 Z"/>
</g>
<g fill="#000000" fill-opacity="0.01" stroke="None">
<path d="
M 0.00 208.00 
C 2.45 185.05 15.79 161.23 37.70 150.70 C 63.60 136.57 95.68 143.79 125.00 142.00
C 125.00 127.33 125.00 112.67 125.00 98.00
C 103.78 102.00 73.77 96.02 80.00 68.00 C 79.39 48.07 75.16 14.36 104.00 16.00 C 205.00 16.00 306.00 16.00 407.00 16.00 C 435.95 13.40 433.14 46.91 432.00 67.00 C 438.69 95.35 408.79 102.34 387.00 98.00
C 387.00 112.67 387.00 127.33 387.00 142.00
C 416.13 143.75 447.78 136.75 473.70 150.31 C 495.89 160.87 509.57 184.79 512.00 208.00
L 512.00 0.00
L 0.00 0.00
L 0.00 208.00 Z"/>
</g>
<g fill="#000000" fill-opacity="1.00" stroke="None">
<path d="
M 0.00 208.00 
L 0.00 431.00
C 2.99 462.66 29.77 493.30 63.00 495.00 C 189.50 497.33 317.08 495.33 444.00 496.00 C 477.55 495.38 505.64 467.54 512.00 436.00
L 512.00 208.00
C 509.57 184.79 495.89 160.87 473.70 150.31 C 447.78 136.75 416.13 143.75 387.00 142.00
C 387.00 127.33 387.00 112.67 387.00 98.00
C 408.79 102.34 438.69 95.35 432.00 67.00 C 433.14 46.91 435.95 13.40 407.00 16.00 C 306.00 16.00 205.00 16.00 104.00 16.00 C 75.16 14.36 79.39 48.07 80.00 68.00 C 73.77 96.02 103.78 102.00 125.00 98.00
C 125.00 112.67 125.00 127.33 125.00 142.00
C 95.68 143.79 63.60 136.57 37.70 150.70 C 15.79 161.23 2.45 185.05 0.00 208.00
M 412.00 36.00 
C 412.00 50.00 412.00 64.00 412.00 78.00
C 308.00 78.00 204.00 78.00 100.00 78.00
C 100.00 64.00 100.00 50.00 100.00 36.00
C 204.00 36.00 308.00 36.00 412.00 36.00
M 367.00 142.00 
C 293.00 142.00 219.00 142.00 145.00 142.00
C 143.34 128.41 143.33 111.52 145.00 98.00
C 219.00 98.00 293.00 98.00 367.00 98.00
C 368.66 111.60 368.67 128.48 367.00 142.00
M 447.00 162.00 
C 488.54 166.05 497.31 212.46 492.00 248.00 C 492.00 291.67 492.00 335.33 492.00 379.00 C 493.32 414.01 497.52 462.79 455.93 473.93 C 413.95 478.63 369.83 474.72 327.00 476.00 C 239.67 476.00 152.33 476.00 65.00 476.00 C 23.08 471.89 14.89 425.53 20.00 390.00 C 20.00 346.33 20.00 302.67 20.00 259.00 C 18.71 223.93 14.41 175.39 56.07 164.07 C 98.08 159.42 142.16 163.25 185.00 162.00 C 272.33 162.00 359.67 162.00 447.00 162.00 Z"/>
</g>
<g fill="#D1A184" fill-opacity="1.00" stroke="None">
<path d="
M 412.00 36.00 
C 308.00 36.00 204.00 36.00 100.00 36.00
C 100.00 50.00 100.00 64.00 100.00 78.00
C 204.00 78.00 308.00 78.00 412.00 78.00
C 412.00 64.00 412.00 50.00 412.00 36.00 Z"/>
</g>
<g fill="#5B5151" fill-opacity="1.00" stroke="None">
<path d="
M 145.00 142.00 
C 145.00 127.33 145.00 112.67 145.00 98.00
C 143.33 111.52 143.34 128.41 145.00 142.00 Z"/>
</g>
<g fill="#E5CECD" fill-opacity="1.00" stroke="None">
<path d="
M 145.00 142.00 
C 219.00 142.00 293.00 142.00 367.00 142.00
C 367.00 127.33 367.00 112.67 367.00 98.00
C 293.00 98.00 219.00 98.00 145.00 98.00
C 145.00 112.67 145.00 127.33 145.00 142.00 Z"/>
</g>
<g fill="#5C5252" fill-opacity="1.00" stroke="None">
<path d="
M 367.00 142.00 
C 368.67 128.48 368.66 111.60 367.00 98.00
C 367.00 112.67 367.00 127.33 367.00 142.00 Z"/>
</g>
<g fill="#9C99E7" fill-opacity="1.00" stroke="None">
<path d="
M 447.00 162.00 
C 359.67 162.00 272.33 162.00 185.00 162.00 C 142.16 163.25 98.08 159.42 56.07 164.07 C 14.41 175.39 18.71 223.93 20.00 259.00 C 20.00 302.67 20.00 346.33 20.00 390.00 C 14.89 425.53 23.08 471.89 65.00 476.00 C 152.33 476.00 239.67 476.00 327.00 476.00 C 369.83 474.72 413.95 478.63 455.93 473.93 C 497.52 462.79 493.32 414.01 492.00 379.00 C 492.00 335.33 492.00 291.67 492.00 248.00 C 497.31 212.46 488.54 166.05 447.00 162.00
M 221.00 210.00 
C 229.33 210.00 237.67 210.00 246.00 210.00
C 245.36 197.14 266.62 197.10 266.00 210.00
C 274.33 210.00 282.67 210.00 291.00 210.00
C 294.81 192.14 319.62 202.96 333.00 200.00 C 350.67 200.00 368.33 200.00 386.00 200.00 C 407.23 194.74 400.12 219.07 410.75 228.25 C 418.67 240.62 443.89 231.46 440.00 252.00 C 440.00 287.00 440.00 322.00 440.00 357.00 C 436.93 371.09 447.61 394.66 431.32 401.32 C 417.38 400.93 404.10 412.00 403.07 426.07 C 402.53 446.28 375.17 435.14 362.00 438.00 C 291.67 438.00 221.33 438.00 151.00 438.00 C 137.74 434.83 110.75 446.54 109.00 427.00 C 108.32 413.07 95.61 400.78 81.33 401.67 C 64.37 395.68 74.95 371.98 72.00 358.00 C 72.00 323.00 72.00 288.00 72.00 253.00 C 67.35 232.04 92.23 240.37 100.75 228.75 C 112.23 220.26 104.04 195.35 125.00 200.00 C 142.67 200.00 160.33 200.00 178.00 200.00 C 191.67 203.09 216.92 191.93 221.00 210.00 Z"/>
</g>
<g fill="#000000" fill-opacity="1.00" stroke="None">
<path d="
M 291.00 210.00 
C 291.77 223.65 308.44 219.44 318.00 220.00 C 330.67 220.00 343.33 220.00 356.00 220.00 C 366.03 222.46 384.31 213.75 386.78 227.22 C 389.71 235.61 395.56 244.03 403.70 248.30 C 412.47 253.75 424.51 255.05 420.00 269.00 C 420.00 307.00 420.00 345.00 420.00 383.00
C 410.28 383.91 401.87 389.92 395.25 397.25 C 385.91 402.74 389.40 420.91 376.00 418.00 C 296.33 418.00 216.67 418.00 137.00 418.00 C 123.04 421.77 126.06 403.73 117.25 397.75 C 110.46 390.23 102.03 383.94 92.00 383.00
C 92.00 345.33 92.00 307.67 92.00 270.00 C 87.57 255.81 98.77 253.20 108.70 248.70 C 115.99 243.51 122.09 236.24 124.97 227.97 C 126.80 213.83 144.95 222.25 155.00 220.00 C 167.67 220.00 180.33 220.00 193.00 220.00 C 202.80 219.23 220.06 224.05 221.00 210.00
C 216.92 191.93 191.67 203.09 178.00 200.00 C 160.33 200.00 142.67 200.00 125.00 200.00 C 104.04 195.35 112.23 220.26 100.75 228.75 C 92.23 240.37 67.35 232.04 72.00 253.00 C 72.00 288.00 72.00 323.00 72.00 358.00 C 74.95 371.98 64.37 395.68 81.33 401.67 C 95.61 400.78 108.32 413.07 109.00 427.00 C 110.75 446.54 137.74 434.83 151.00 438.00 C 221.33 438.00 291.67 438.00 362.00 438.00 C 375.17 435.14 402.53 446.28 403.07 426.07 C 404.10 412.00 417.38 400.93 431.32 401.32 C 447.61 394.66 436.93 371.09 440.00 357.00 C 440.00 322.00 440.00 287.00 440.00 252.00 C 443.89 231.46 418.67 240.62 410.75 228.25 C 400.12 219.07 407.23 194.74 386.00 200.00 C 368.33 200.00 350.67 200.00 333.00 200.00 C 319.62 202.96 294.81 192.14 291.00 210.00 Z"/>
</g>
<g fill="#000000" fill-opacity="1.00" stroke="None">
<path d="
M 246.00 210.00 
C 245.36 222.86 266.62 222.90 266.00 210.00
C 266.62 197.10 245.36 197.14 246.00 210.00 Z"/>
</g>
<g fill="#FDFDFD" fill-opacity="1.00" stroke="None">
<path d="
M 291.00 210.00 
C 282.67 210.00 274.33 210.00 266.00 210.00
C 266.62 222.90 245.36 222.86 246.00 210.00
C 237.67 210.00 229.33 210.00 221.00 210.00
C 220.06 224.05 202.80 219.23 193.00 220.00 C 180.33 220.00 167.67 220.00 155.00 220.00 C 144.95 222.25 126.80 213.83 124.97 227.97 C 122.09 236.24 115.99 243.51 108.70 248.70 C 98.77 253.20 87.57 255.81 92.00 270.00 C 92.00 307.67 92.00 345.33 92.00 383.00
C 102.03 383.94 110.46 390.23 117.25 397.75 C 126.06 403.73 123.04 421.77 137.00 418.00 C 216.67 418.00 296.33 418.00 376.00 418.00 C 389.40 420.91 385.91 402.74 395.25 397.25 C 401.87 389.92 410.28 383.91 420.00 383.00
C 420.00 345.00 420.00 307.00 420.00 269.00 C 424.51 255.05 412.47 253.75 403.70 248.30 C 395.56 244.03 389.71 235.61 386.78 227.22 C 384.31 213.75 366.03 222.46 356.00 220.00 C 343.33 220.00 330.67 220.00 318.00 220.00 C 308.44 219.44 291.77 223.65 291.00 210.00
M 168.00 270.00 
C 180.70 282.85 170.93 305.93 174.00 323.00 C 170.72 337.25 183.57 369.53 160.33 367.67 C 147.10 355.40 157.13 331.88 154.00 315.00 C 157.14 300.48 144.61 268.81 168.00 270.00
M 217.00 314.00 
C 214.01 327.93 217.99 345.14 215.00 359.00
C 216.44 370.31 195.63 371.68 196.00 360.00
C 194.34 333.74 194.33 304.19 196.00 278.00
C 204.35 258.26 220.19 281.21 225.75 291.25 C 233.50 303.35 242.15 314.93 250.00 327.00
C 252.33 312.57 250.34 296.18 251.00 281.00 C 249.73 263.15 277.46 269.77 271.00 286.00 C 271.00 302.00 271.00 318.00 271.00 334.00 C 270.44 345.76 275.30 367.45 258.33 367.67 C 240.10 355.09 231.23 331.25 217.00 314.00
M 313.00 296.00 
C 325.75 289.08 341.55 258.22 354.92 278.08 C 351.85 295.46 331.02 304.07 320.00 317.00
C 328.16 326.94 338.32 334.66 347.25 343.75 C 362.60 349.73 358.72 376.08 341.25 365.75 C 331.81 356.88 322.44 347.87 313.00 339.00
C 314.72 350.60 313.61 376.10 296.25 365.75 C 289.04 353.05 294.89 335.59 293.00 321.00 C 293.84 305.54 291.31 289.17 294.31 274.31 C 308.89 259.87 317.03 283.47 313.00 296.00 Z"/>
</g>
<g fill="#000000" fill-opacity="1.00" stroke="None">
<path d="
M 168.00 270.00 
C 144.61 268.81 157.14 300.48 154.00 315.00 C 157.13 331.88 147.10 355.40 160.33 367.67 C 183.57 369.53 170.72 337.25 174.00 323.00 C 170.93 305.93 180.70 282.85 168.00 270.00 Z"/>
</g>
<g fill="#000000" fill-opacity="1.00" stroke="None">
<path d="
M 196.00 278.00 
C 196.00 305.33 196.00 332.67 196.00 360.00
C 195.63 371.68 216.44 370.31 215.00 359.00
C 215.00 343.33 215.00 327.67 215.00 312.00
C 215.83 312.41 216.87 312.97 217.00 314.00
C 231.23 331.25 240.10 355.09 258.33 367.67 C 275.30 367.45 270.44 345.76 271.00 334.00 C 271.00 318.00 271.00 302.00 271.00 286.00 C 277.46 269.77 249.73 263.15 251.00 281.00 C 250.34 296.18 252.33 312.57 250.00 327.00
C 242.15 314.93 233.50 303.35 225.75 291.25 C 220.19 281.21 204.35 258.26 196.00 278.00 Z"/>
</g>
<g fill="#000000" fill-opacity="1.00" stroke="None">
<path d="
M 313.00 296.00 
C 317.03 283.47 308.89 259.87 294.31 274.31 C 291.31 289.17 293.84 305.54 293.00 321.00 C 294.89 335.59 289.04 353.05 296.25 365.75 C 313.61 376.10 314.72 350.60 313.00 339.00
C 322.44 347.87 331.81 356.88 341.25 365.75 C 358.72 376.08 362.60 349.73 347.25 343.75 C 338.32 334.66 328.16 326.94 320.00 317.00
C 331.02 304.07 351.85 295.46 354.92 278.08 C 341.55 258.22 325.75 289.08 313.00 296.00 Z"/>
</g>
<g fill="#686868" fill-opacity="1.00" stroke="None">
<path d="
M 196.00 360.00 
C 196.00 332.67 196.00 305.33 196.00 278.00
C 194.33 304.19 194.34 333.74 196.00 360.00 Z"/>
</g>
<g fill="#8C8C8C" fill-opacity="1.00" stroke="None">
<path d="
M 215.00 359.00 
C 217.99 345.14 214.01 327.93 217.00 314.00
C 216.87 312.97 215.83 312.41 215.00 312.00
C 215.00 327.67 215.00 343.33 215.00 359.00 Z"/>
</g>
<g fill="#000000" fill-opacity="0.01" stroke="None">
<path d="
M 0.00 512.00 
L 512.00 512.00
L 512.00 436.00
C 505.64 467.54 477.55 495.38 444.00 496.00 C 317.08 495.33 189.50 497.33 63.00 495.00 C 29.77 493.30 2.99 462.66 0.00 431.00
L 0.00 512.00 Z"/>
</g>
</svg>