<svg xmlns="http://www.w3.org/2000/svg" xmlns:v="https://svgstorm.com"
viewBox = "0 0 512 512"
width="512"
height="512">
<g fill="None" fill-opacity="0.0" stroke="#000000" stroke-opacity="0.01" stroke-width="0.3"><path d="
M 0.00 512.00 
L 62.00 512.00
C 19.88 509.14 13.12 462.12 18.00 427.00 C 22.05 411.23 7.09 376.61 32.00 377.00 C 53.67 377.00 75.33 377.00 97.00 377.00
C 97.52 364.34 95.96 351.05 97.78 338.78 C 101.43 330.51 110.98 325.83 117.00 319.00
C 108.03 307.82 91.40 298.86 97.00 281.00 C 97.00 261.33 97.00 241.67 97.00 222.00 C 100.42 204.34 92.15 190.49 85.08 175.92 C 73.53 147.40 64.62 112.76 69.26 83.25 C 70.78 71.27 83.55 69.05 97.00 70.00
C 97.25 50.61 94.95 31.81 105.24 21.23 C 115.90 6.87 124.70 2.15 141.00 0.00
L 0.00 0.00
L 0.00 512.00 Z"/>
</g>
<g fill="None" fill-opacity="0.0" stroke="#000000" stroke-opacity="1.00" stroke-width="0.3"><path d="
M 62.00 512.00 
L 373.00 512.00
C 406.73 507.89 420.70 471.17 415.00 440.00 C 415.00 383.00 415.00 326.00 415.00 269.00 C 419.78 252.12 406.08 241.81 395.00 232.00
C 400.53 223.46 411.34 219.31 414.92 209.92 C 412.67 198.79 421.00 179.98 408.00 175.00
C 390.66 178.42 408.23 203.78 394.75 211.75 C 387.52 218.41 369.58 229.26 381.75 239.25 C 390.41 249.16 404.70 255.48 400.00 271.00 C 399.78 337.53 400.44 404.27 399.67 470.67 C 395.68 498.28 355.44 506.73 341.00 482.00
C 330.45 454.45 338.54 421.74 336.00 392.00 C 340.18 371.77 316.45 377.58 304.00 377.00 C 288.00 377.00 272.00 377.00 256.00 377.00 C 242.43 373.76 235.58 388.35 227.00 396.00
C 216.08 390.55 211.43 372.47 196.00 377.00 C 182.47 380.18 160.17 369.77 153.00 384.00
C 160.76 399.99 185.20 388.54 200.00 392.00 C 211.24 398.19 216.74 418.88 231.69 412.69 C 242.36 403.64 249.11 386.97 266.00 392.00 C 284.33 392.00 302.67 392.00 321.00 392.00
C 324.75 426.93 311.25 467.76 333.00 497.00
C 252.00 497.00 171.00 497.00 90.00 497.00 C 68.36 498.85 38.71 498.21 33.67 472.33 C 32.11 445.90 33.45 418.72 33.00 392.00
C 51.00 392.00 69.00 392.00 87.00 392.00 C 101.25 388.39 126.78 400.22 133.00 384.00
C 132.71 373.32 119.06 377.99 112.00 377.00
C 113.66 365.21 108.57 350.83 114.75 340.75 C 120.73 333.52 130.96 329.08 133.97 319.97 C 135.37 308.77 122.23 305.19 116.75 297.25 C 107.13 288.76 114.13 273.48 112.00 262.00 C 112.67 249.17 110.67 235.01 113.00 223.00
C 121.98 236.82 135.89 248.20 149.00 258.00
C 140.80 280.60 175.10 266.60 185.08 277.92 C 199.46 284.72 214.82 289.17 230.22 292.78 C 245.56 298.09 265.86 290.75 276.25 306.75 C 286.07 316.89 296.70 326.54 306.00 337.00
C 264.06 337.62 221.45 335.77 179.93 337.93 C 168.56 352.21 192.17 353.94 202.00 352.00 C 243.92 352.64 286.49 350.71 328.00 353.00 C 340.57 350.85 357.18 357.61 367.00 349.00
C 368.55 346.69 368.38 343.32 367.00 341.00
C 345.00 317.50 320.95 295.45 299.00 272.00
C 311.67 272.00 324.33 272.00 337.00 272.00 C 346.48 270.70 365.80 277.01 365.00 262.00 C 358.62 251.84 342.47 259.28 332.00 257.00 C 319.33 257.00 306.67 257.00 294.00 257.00
C 293.98 248.43 291.70 240.43 291.00 232.00
C 314.84 230.75 340.03 234.56 363.00 230.00
C 370.32 219.95 357.87 214.27 349.00 217.00
C 328.50 216.33 306.68 218.33 287.00 216.00
C 283.84 208.03 281.92 199.69 278.00 192.00
C 294.33 192.00 310.67 192.00 327.00 192.00 C 338.84 189.22 365.27 199.78 364.67 181.33 C 353.90 171.79 334.27 179.48 320.00 177.00 C 303.67 177.00 287.33 177.00 271.00 177.00
C 267.71 168.08 261.63 160.34 257.00 152.00
C 284.67 152.00 312.33 152.00 340.00 152.00 C 349.81 154.07 373.22 151.82 361.92 138.08 C 334.88 135.56 306.54 137.72 279.00 137.00 C 266.75 134.81 250.82 141.76 241.25 132.75 C 234.08 125.75 227.45 117.94 219.00 113.00
C 255.43 110.67 293.82 112.67 331.00 112.00 C 341.60 110.18 356.19 116.15 363.92 107.92 C 369.50 92.61 347.86 97.72 339.00 97.00 C 301.33 97.00 263.67 97.00 226.00 97.00 C 214.39 95.65 201.06 99.99 190.77 94.23 C 173.23 85.36 154.82 78.99 135.93 74.07 C 126.88 70.62 107.78 75.59 112.00 60.00 C 107.83 39.38 119.55 15.52 142.01 15.01 C 217.67 14.99 293.34 15.01 369.00 15.00
C 383.33 15.00 397.67 15.00 412.00 15.00
C 391.77 40.85 402.81 77.51 400.00 109.00 C 403.40 123.38 392.11 148.35 408.00 155.00
C 416.70 152.98 415.04 142.35 415.00 135.00
C 439.78 134.14 465.50 136.72 489.69 133.69 C 497.85 125.64 493.13 111.02 493.22 100.78 C 487.98 93.93 481.24 86.68 474.00 82.00
C 482.07 69.00 500.27 64.33 494.00 46.00 C 494.76 21.89 473.68 2.49 452.00 0.00
L 141.00 0.00
C 124.70 2.15 115.90 6.87 105.24 21.23 C 94.95 31.81 97.25 50.61 97.00 70.00
C 83.55 69.05 70.78 71.27 69.26 83.25 C 64.62 112.76 73.53 147.40 85.08 175.92 C 92.15 190.49 100.42 204.34 97.00 222.00 C 97.00 241.67 97.00 261.33 97.00 281.00 C 91.40 298.86 108.03 307.82 117.00 319.00
C 110.98 325.83 101.43 330.51 97.78 338.78 C 95.96 351.05 97.52 364.34 97.00 377.00
C 75.33 377.00 53.67 377.00 32.00 377.00 C 7.09 376.61 22.05 411.23 18.00 427.00 C 13.12 462.12 19.88 509.14 62.00 512.00
M 479.00 120.00 
C 457.67 120.00 436.33 120.00 415.00 120.00
C 420.79 85.95 398.54 33.05 438.22 16.22 C 454.46 11.18 472.71 21.08 477.92 37.08 C 486.90 56.64 465.44 64.56 457.08 78.08 C 456.87 95.69 486.41 99.67 479.00 120.00
M 174.00 103.00 
C 185.51 104.83 184.73 115.41 184.00 125.00 C 184.00 135.67 184.00 146.33 184.00 157.00
C 175.14 151.53 170.20 138.10 159.00 138.00 C 149.65 141.36 140.79 151.51 136.03 160.03 C 135.21 171.85 149.49 176.96 155.00 186.00
C 143.00 186.00 131.00 186.00 119.00 186.00 C 106.07 190.09 101.76 179.43 98.23 169.77 C 94.68 160.66 91.25 151.54 89.00 142.00
C 97.45 142.92 115.78 143.23 110.69 130.31 C 104.46 120.92 84.22 134.72 84.07 119.93 C 83.76 108.97 80.72 96.00 84.75 85.75 C 106.77 83.01 129.02 86.94 149.22 93.78 C 164.77 93.31 156.18 110.85 160.26 119.74 C 170.96 130.51 176.91 111.99 174.00 103.00
M 229.00 142.00 
C 250.68 155.19 239.18 182.08 244.92 202.08 C 257.72 211.89 258.91 192.02 259.00 184.00
C 268.24 205.78 276.22 228.20 279.00 252.00
C 252.25 225.39 223.67 198.90 199.03 170.97 C 198.96 152.98 199.02 134.99 199.00 117.00
C 205.33 121.67 216.51 125.01 214.00 135.00 C 215.89 144.40 209.53 158.34 218.70 164.30 C 231.60 167.52 229.03 150.27 229.00 142.00
M 344.00 338.00 
C 340.40 339.59 333.53 339.71 330.00 338.00
C 309.15 318.31 289.24 297.41 268.75 277.25 C 257.35 269.94 248.91 247.26 234.00 254.00
C 229.39 266.20 245.67 272.00 251.00 281.00
C 213.77 275.79 176.78 261.91 148.00 237.00
C 149.60 234.74 159.37 236.61 164.00 236.00
C 172.05 234.92 171.22 221.77 163.00 222.00
C 152.32 220.71 139.10 224.60 130.00 220.00
C 125.22 213.66 119.59 208.01 116.00 201.00
C 132.00 201.00 148.00 201.00 164.00 201.00 C 176.73 199.57 182.47 214.66 191.75 221.25 C 200.90 227.62 207.29 244.22 220.00 240.00
C 228.51 228.71 209.87 221.31 204.25 212.75 C 187.44 196.27 171.13 178.96 154.00 163.00
C 154.22 159.46 158.74 158.07 160.00 155.00
C 222.25 214.09 283.12 276.95 344.00 338.00 Z"/>
</g>
<g fill="None" fill-opacity="0.0" stroke="#000000" stroke-opacity="0.00" stroke-width="0.3"><path d="
M 408.00 155.00 
C 408.00 161.67 408.00 168.33 408.00 175.00
C 421.00 179.98 412.67 198.79 414.92 209.92 C 411.34 219.31 400.53 223.46 395.00 232.00
C 406.08 241.81 419.78 252.12 415.00 269.00 C 415.00 326.00 415.00 383.00 415.00 440.00 C 420.70 471.17 406.73 507.89 373.00 512.00
L 512.00 512.00
L 512.00 0.00
L 452.00 0.00
C 473.68 2.49 494.76 21.89 494.00 46.00 C 500.27 64.33 482.07 69.00 474.00 82.00
C 481.24 86.68 487.98 93.93 493.22 100.78 C 493.13 111.02 497.85 125.64 489.69 133.69 C 465.50 136.72 439.78 134.14 415.00 135.00
C 415.04 142.35 416.70 152.98 408.00 155.00 Z"/>
</g>
<g fill="None" fill-opacity="0.0" stroke="#FCEEAD" stroke-opacity="1.00" stroke-width="0.3"><path d="
M 287.00 216.00 
C 307.33 216.00 327.67 216.00 348.00 216.00
C 340.91 207.11 359.30 200.39 364.25 193.25 C 372.52 181.96 365.85 164.70 368.00 151.00 C 368.64 105.74 366.70 59.84 369.00 15.00
C 293.34 15.01 217.67 14.99 142.01 15.01 C 119.55 15.52 107.83 39.38 112.00 60.00 C 107.78 75.59 126.88 70.62 135.93 74.07 C 154.82 78.99 173.23 85.36 190.77 94.23 C 201.06 99.99 214.39 95.65 226.00 97.00 C 263.67 97.00 301.33 97.00 339.00 97.00 C 347.86 97.72 369.50 92.61 363.92 107.92 C 356.19 116.15 341.60 110.18 331.00 112.00 C 293.82 112.67 255.43 110.67 219.00 113.00
C 227.45 117.94 234.08 125.75 241.25 132.75 C 250.82 141.76 266.75 134.81 279.00 137.00 C 306.54 137.72 334.88 135.56 361.92 138.08 C 373.22 151.82 349.81 154.07 340.00 152.00 C 312.33 152.00 284.67 152.00 257.00 152.00
C 261.63 160.34 267.71 168.08 271.00 177.00
C 287.33 177.00 303.67 177.00 320.00 177.00 C 334.27 179.48 353.90 171.79 364.67 181.33 C 365.27 199.78 338.84 189.22 327.00 192.00 C 310.67 192.00 294.33 192.00 278.00 192.00
C 281.92 199.69 283.84 208.03 287.00 216.00
M 361.00 57.00 
C 373.40 67.91 354.41 75.84 344.00 72.00 C 290.01 71.48 235.38 73.04 181.78 71.22 C 167.34 61.04 187.61 52.99 198.00 57.00 C 252.33 57.00 306.67 57.00 361.00 57.00 Z"/>
</g>
<g fill="None" fill-opacity="0.0" stroke="#FEDF7C" stroke-opacity="1.00" stroke-width="0.3"><path d="
M 348.00 216.00 
C 348.25 216.25 348.77 216.95 349.00 217.00
C 357.87 214.27 370.32 219.95 363.00 230.00
C 373.11 237.50 365.76 253.02 368.00 264.00 C 367.33 289.50 369.33 316.32 367.00 341.00
C 368.38 343.32 368.55 346.69 367.00 349.00
C 369.33 374.43 367.34 401.82 368.00 428.00 C 370.82 449.66 363.68 475.24 341.00 482.00
C 355.44 506.73 395.68 498.28 399.67 470.67 C 400.44 404.27 399.78 337.53 400.00 271.00 C 404.70 255.48 390.41 249.16 381.75 239.25 C 369.58 229.26 387.52 218.41 394.75 211.75 C 408.23 203.78 390.66 178.42 408.00 175.00
C 408.00 168.33 408.00 161.67 408.00 155.00
C 392.11 148.35 403.40 123.38 400.00 109.00 C 402.81 77.51 391.77 40.85 412.00 15.00
C 397.67 15.00 383.33 15.00 369.00 15.00
C 366.70 59.84 368.64 105.74 368.00 151.00 C 365.85 164.70 372.52 181.96 364.25 193.25 C 359.30 200.39 340.91 207.11 348.00 216.00 Z"/>
</g>
<g fill="None" fill-opacity="0.0" stroke="#FDCE63" stroke-opacity="1.00" stroke-width="0.3"><path d="
M 479.00 120.00 
C 486.41 99.67 456.87 95.69 457.08 78.08 C 465.44 64.56 486.90 56.64 477.92 37.08 C 472.71 21.08 454.46 11.18 438.22 16.22 C 398.54 33.05 420.79 85.95 415.00 120.00
C 436.33 120.00 457.67 120.00 479.00 120.00 Z"/>
</g>
<g fill="None" fill-opacity="0.0" stroke="#000000" stroke-opacity="1.00" stroke-width="0.3"><path d="
M 361.00 57.00 
C 306.67 57.00 252.33 57.00 198.00 57.00 C 187.61 52.99 167.34 61.04 181.78 71.22 C 235.38 73.04 290.01 71.48 344.00 72.00 C 354.41 75.84 373.40 67.91 361.00 57.00 Z"/>
</g>
<g fill="None" fill-opacity="0.0" stroke="#8C716C" stroke-opacity="1.00" stroke-width="0.3"><path d="
M 174.00 103.00 
C 176.91 111.99 170.96 130.51 160.26 119.74 C 156.18 110.85 164.77 93.31 149.22 93.78 C 129.02 86.94 106.77 83.01 84.75 85.75 C 80.72 96.00 83.76 108.97 84.07 119.93 C 84.22 134.72 104.46 120.92 110.69 130.31 C 115.78 143.23 97.45 142.92 89.00 142.00
C 91.25 151.54 94.68 160.66 98.23 169.77 C 101.76 179.43 106.07 190.09 119.00 186.00 C 131.00 186.00 143.00 186.00 155.00 186.00
C 149.49 176.96 135.21 171.85 136.03 160.03 C 140.79 151.51 149.65 141.36 159.00 138.00 C 170.20 138.10 175.14 151.53 184.00 157.00
C 184.00 146.33 184.00 135.67 184.00 125.00 C 184.73 115.41 185.51 104.83 174.00 103.00 Z"/>
</g>
<g fill="None" fill-opacity="0.0" stroke="#F6F3F3" stroke-opacity="1.00" stroke-width="0.3"><path d="
M 229.00 142.00 
C 229.03 150.27 231.60 167.52 218.70 164.30 C 209.53 158.34 215.89 144.40 214.00 135.00 C 216.51 125.01 205.33 121.67 199.00 117.00
C 199.02 134.99 198.96 152.98 199.03 170.97 C 223.67 198.90 252.25 225.39 279.00 252.00
C 276.22 228.20 268.24 205.78 259.00 184.00
C 258.91 192.02 257.72 211.89 244.92 202.08 C 239.18 182.08 250.68 155.19 229.00 142.00 Z"/>
</g>
<g fill="None" fill-opacity="0.0" stroke="#BEB6B1" stroke-opacity="1.00" stroke-width="0.3"><path d="
M 220.00 240.00 
C 224.99 244.18 229.89 249.04 234.00 254.00
C 248.91 247.26 257.35 269.94 268.75 277.25 C 289.24 297.41 309.15 318.31 330.00 338.00
C 334.67 338.00 339.33 338.00 344.00 338.00
C 283.12 276.95 222.25 214.09 160.00 155.00
C 158.74 158.07 154.22 159.46 154.00 163.00
C 171.13 178.96 187.44 196.27 204.25 212.75 C 209.87 221.31 228.51 228.71 220.00 240.00 Z"/>
</g>
<g fill="None" fill-opacity="0.0" stroke="#F6F3F3" stroke-opacity="1.00" stroke-width="0.3"><path d="
M 130.00 220.00 
C 140.34 222.96 153.07 219.03 163.00 222.00
C 171.22 221.77 172.05 234.92 164.00 236.00
C 159.58 238.25 153.18 236.39 148.00 237.00
C 176.78 261.91 213.77 275.79 251.00 281.00
C 245.67 272.00 229.39 266.20 234.00 254.00
C 229.89 249.04 224.99 244.18 220.00 240.00
C 207.29 244.22 200.90 227.62 191.75 221.25 C 182.47 214.66 176.73 199.57 164.00 201.00 C 148.00 201.00 132.00 201.00 116.00 201.00
C 119.59 208.01 125.22 213.66 130.00 220.00 Z"/>
</g>
<g fill="None" fill-opacity="0.0" stroke="#BBB080" stroke-opacity="1.00" stroke-width="0.3"><path d="
M 349.00 217.00 
C 348.77 216.95 348.25 216.25 348.00 216.00
C 327.67 216.00 307.33 216.00 287.00 216.00
C 306.68 218.33 328.50 216.33 349.00 217.00 Z"/>
</g>
<g fill="None" fill-opacity="0.0" stroke="#828080" stroke-opacity="1.00" stroke-width="0.3"><path d="
M 163.00 222.00 
C 153.07 219.03 140.34 222.96 130.00 220.00
C 139.10 224.60 152.32 220.71 163.00 222.00 Z"/>
</g>
<g fill="None" fill-opacity="0.0" stroke="#FDEEAD" stroke-opacity="1.00" stroke-width="0.3"><path d="
M 133.00 384.00 
C 139.67 384.00 146.33 384.00 153.00 384.00
C 160.17 369.77 182.47 380.18 196.00 377.00 C 211.43 372.47 216.08 390.55 227.00 396.00
C 235.58 388.35 242.43 373.76 256.00 377.00 C 272.00 377.00 288.00 377.00 304.00 377.00 C 316.45 377.58 340.18 371.77 336.00 392.00 C 338.54 421.74 330.45 454.45 341.00 482.00
C 363.68 475.24 370.82 449.66 368.00 428.00 C 367.34 401.82 369.33 374.43 367.00 349.00
C 357.18 357.61 340.57 350.85 328.00 353.00 C 286.49 350.71 243.92 352.64 202.00 352.00 C 192.17 353.94 168.56 352.21 179.93 337.93 C 221.45 335.77 264.06 337.62 306.00 337.00
C 296.70 326.54 286.07 316.89 276.25 306.75 C 265.86 290.75 245.56 298.09 230.22 292.78 C 214.82 289.17 199.46 284.72 185.08 277.92 C 175.10 266.60 140.80 280.60 149.00 258.00
C 135.89 248.20 121.98 236.82 113.00 223.00
C 110.67 235.01 112.67 249.17 112.00 262.00 C 114.13 273.48 107.13 288.76 116.75 297.25 C 122.23 305.19 135.37 308.77 133.97 319.97 C 130.96 329.08 120.73 333.52 114.75 340.75 C 108.57 350.83 113.66 365.21 112.00 377.00
C 119.06 377.99 132.71 373.32 133.00 384.00
M 213.00 297.00 
C 226.12 309.30 204.46 315.25 194.00 312.00 C 180.01 311.48 165.38 313.04 151.78 311.22 C 137.15 299.60 159.55 293.54 170.00 297.00 C 184.33 297.00 198.67 297.00 213.00 297.00 Z"/>
</g>
<g fill="None" fill-opacity="0.0" stroke="#FDEEAD" stroke-opacity="1.00" stroke-width="0.3"><path d="
M 367.00 341.00 
C 369.33 316.32 367.33 289.50 368.00 264.00 C 365.76 253.02 373.11 237.50 363.00 230.00
C 340.03 234.56 314.84 230.75 291.00 232.00
C 291.70 240.43 293.98 248.43 294.00 257.00
C 306.67 257.00 319.33 257.00 332.00 257.00 C 342.47 259.28 358.62 251.84 365.00 262.00 C 365.80 277.01 346.48 270.70 337.00 272.00 C 324.33 272.00 311.67 272.00 299.00 272.00
C 320.95 295.45 345.00 317.50 367.00 341.00 Z"/>
</g>
<g fill="None" fill-opacity="0.0" stroke="#747373" stroke-opacity="1.00" stroke-width="0.3"><path d="
M 148.00 237.00 
C 153.18 236.39 159.58 238.25 164.00 236.00
C 159.37 236.61 149.60 234.74 148.00 237.00 Z"/>
</g>
<g fill="None" fill-opacity="0.0" stroke="#000000" stroke-opacity="1.00" stroke-width="0.3"><path d="
M 213.00 297.00 
C 198.67 297.00 184.33 297.00 170.00 297.00 C 159.55 293.54 137.15 299.60 151.78 311.22 C 165.38 313.04 180.01 311.48 194.00 312.00 C 204.46 315.25 226.12 309.30 213.00 297.00 Z"/>
</g>
<g fill="None" fill-opacity="0.0" stroke="#686361" stroke-opacity="1.00" stroke-width="0.3"><path d="
M 344.00 338.00 
C 339.33 338.00 334.67 338.00 330.00 338.00
C 333.53 339.71 340.40 339.59 344.00 338.00 Z"/>
</g>
<g fill="None" fill-opacity="0.0" stroke="#FECF64" stroke-opacity="1.00" stroke-width="0.3"><path d="
M 153.00 384.00 
C 146.33 384.00 139.67 384.00 133.00 384.00
C 126.78 400.22 101.25 388.39 87.00 392.00 C 69.00 392.00 51.00 392.00 33.00 392.00
C 33.45 418.72 32.11 445.90 33.67 472.33 C 38.71 498.21 68.36 498.85 90.00 497.00 C 171.00 497.00 252.00 497.00 333.00 497.00
C 311.25 467.76 324.75 426.93 321.00 392.00
C 302.67 392.00 284.33 392.00 266.00 392.00 C 249.11 386.97 242.36 403.64 231.69 412.69 C 216.74 418.88 211.24 398.19 200.00 392.00 C 185.20 388.54 160.76 399.99 153.00 384.00 Z"/>
</g>
<g fill="#000000" fill-opacity="0.01" stroke="None">
<path d="
M 0.00 512.00 
L 62.00 512.00
C 19.88 509.14 13.12 462.12 18.00 427.00 C 22.05 411.23 7.09 376.61 32.00 377.00 C 53.67 377.00 75.33 377.00 97.00 377.00
C 97.52 364.34 95.96 351.05 97.78 338.78 C 101.43 330.51 110.98 325.83 117.00 319.00
C 108.03 307.82 91.40 298.86 97.00 281.00 C 97.00 261.33 97.00 241.67 97.00 222.00 C 100.42 204.34 92.15 190.49 85.08 175.92 C 73.53 147.40 64.62 112.76 69.26 83.25 C 70.78 71.27 83.55 69.05 97.00 70.00
C 97.25 50.61 94.95 31.81 105.24 21.23 C 115.90 6.87 124.70 2.15 141.00 0.00
L 0.00 0.00
L 0.00 512.00 Z"/>
</g>
<g fill="#000000" fill-opacity="1.00" stroke="None">
<path d="
M 62.00 512.00 
L 373.00 512.00
C 406.73 507.89 420.70 471.17 415.00 440.00 C 415.00 383.00 415.00 326.00 415.00 269.00 C 419.78 252.12 406.08 241.81 395.00 232.00
C 400.53 223.46 411.34 219.31 414.92 209.92 C 412.67 198.79 421.00 179.98 408.00 175.00
C 390.66 178.42 408.23 203.78 394.75 211.75 C 387.52 218.41 369.58 229.26 381.75 239.25 C 390.41 249.16 404.70 255.48 400.00 271.00 C 399.78 337.53 400.44 404.27 399.67 470.67 C 395.68 498.28 355.44 506.73 341.00 482.00
C 330.45 454.45 338.54 421.74 336.00 392.00 C 340.18 371.77 316.45 377.58 304.00 377.00 C 288.00 377.00 272.00 377.00 256.00 377.00 C 242.43 373.76 235.58 388.35 227.00 396.00
C 216.08 390.55 211.43 372.47 196.00 377.00 C 182.47 380.18 160.17 369.77 153.00 384.00
C 160.76 399.99 185.20 388.54 200.00 392.00 C 211.24 398.19 216.74 418.88 231.69 412.69 C 242.36 403.64 249.11 386.97 266.00 392.00 C 284.33 392.00 302.67 392.00 321.00 392.00
C 324.75 426.93 311.25 467.76 333.00 497.00
C 252.00 497.00 171.00 497.00 90.00 497.00 C 68.36 498.85 38.71 498.21 33.67 472.33 C 32.11 445.90 33.45 418.72 33.00 392.00
C 51.00 392.00 69.00 392.00 87.00 392.00 C 101.25 388.39 126.78 400.22 133.00 384.00
C 132.71 373.32 119.06 377.99 112.00 377.00
C 113.66 365.21 108.57 350.83 114.75 340.75 C 120.73 333.52 130.96 329.08 133.97 319.97 C 135.37 308.77 122.23 305.19 116.75 297.25 C 107.13 288.76 114.13 273.48 112.00 262.00 C 112.67 249.17 110.67 235.01 113.00 223.00
C 121.98 236.82 135.89 248.20 149.00 258.00
C 140.80 280.60 175.10 266.60 185.08 277.92 C 199.46 284.72 214.82 289.17 230.22 292.78 C 245.56 298.09 265.86 290.75 276.25 306.75 C 286.07 316.89 296.70 326.54 306.00 337.00
C 264.06 337.62 221.45 335.77 179.93 337.93 C 168.56 352.21 192.17 353.94 202.00 352.00 C 243.92 352.64 286.49 350.71 328.00 353.00 C 340.57 350.85 357.18 357.61 367.00 349.00
C 368.55 346.69 368.38 343.32 367.00 341.00
C 345.00 317.50 320.95 295.45 299.00 272.00
C 311.67 272.00 324.33 272.00 337.00 272.00 C 346.48 270.70 365.80 277.01 365.00 262.00 C 358.62 251.84 342.47 259.28 332.00 257.00 C 319.33 257.00 306.67 257.00 294.00 257.00
C 293.98 248.43 291.70 240.43 291.00 232.00
C 314.84 230.75 340.03 234.56 363.00 230.00
C 370.32 219.95 357.87 214.27 349.00 217.00
C 328.50 216.33 306.68 218.33 287.00 216.00
C 283.84 208.03 281.92 199.69 278.00 192.00
C 294.33 192.00 310.67 192.00 327.00 192.00 C 338.84 189.22 365.27 199.78 364.67 181.33 C 353.90 171.79 334.27 179.48 320.00 177.00 C 303.67 177.00 287.33 177.00 271.00 177.00
C 267.71 168.08 261.63 160.34 257.00 152.00
C 284.67 152.00 312.33 152.00 340.00 152.00 C 349.81 154.07 373.22 151.82 361.92 138.08 C 334.88 135.56 306.54 137.72 279.00 137.00 C 266.75 134.81 250.82 141.76 241.25 132.75 C 234.08 125.75 227.45 117.94 219.00 113.00
C 255.43 110.67 293.82 112.67 331.00 112.00 C 341.60 110.18 356.19 116.15 363.92 107.92 C 369.50 92.61 347.86 97.72 339.00 97.00 C 301.33 97.00 263.67 97.00 226.00 97.00 C 214.39 95.65 201.06 99.99 190.77 94.23 C 173.23 85.36 154.82 78.99 135.93 74.07 C 126.88 70.62 107.78 75.59 112.00 60.00 C 107.83 39.38 119.55 15.52 142.01 15.01 C 217.67 14.99 293.34 15.01 369.00 15.00
C 383.33 15.00 397.67 15.00 412.00 15.00
C 391.77 40.85 402.81 77.51 400.00 109.00 C 403.40 123.38 392.11 148.35 408.00 155.00
C 416.70 152.98 415.04 142.35 415.00 135.00
C 439.78 134.14 465.50 136.72 489.69 133.69 C 497.85 125.64 493.13 111.02 493.22 100.78 C 487.98 93.93 481.24 86.68 474.00 82.00
C 482.07 69.00 500.27 64.33 494.00 46.00 C 494.76 21.89 473.68 2.49 452.00 0.00
L 141.00 0.00
C 124.70 2.15 115.90 6.87 105.24 21.23 C 94.95 31.81 97.25 50.61 97.00 70.00
C 83.55 69.05 70.78 71.27 69.26 83.25 C 64.62 112.76 73.53 147.40 85.08 175.92 C 92.15 190.49 100.42 204.34 97.00 222.00 C 97.00 241.67 97.00 261.33 97.00 281.00 C 91.40 298.86 108.03 307.82 117.00 319.00
C 110.98 325.83 101.43 330.51 97.78 338.78 C 95.96 351.05 97.52 364.34 97.00 377.00
C 75.33 377.00 53.67 377.00 32.00 377.00 C 7.09 376.61 22.05 411.23 18.00 427.00 C 13.12 462.12 19.88 509.14 62.00 512.00
M 479.00 120.00 
C 457.67 120.00 436.33 120.00 415.00 120.00
C 420.79 85.95 398.54 33.05 438.22 16.22 C 454.46 11.18 472.71 21.08 477.92 37.08 C 486.90 56.64 465.44 64.56 457.08 78.08 C 456.87 95.69 486.41 99.67 479.00 120.00
M 174.00 103.00 
C 185.51 104.83 184.73 115.41 184.00 125.00 C 184.00 135.67 184.00 146.33 184.00 157.00
C 175.14 151.53 170.20 138.10 159.00 138.00 C 149.65 141.36 140.79 151.51 136.03 160.03 C 135.21 171.85 149.49 176.96 155.00 186.00
C 143.00 186.00 131.00 186.00 119.00 186.00 C 106.07 190.09 101.76 179.43 98.23 169.77 C 94.68 160.66 91.25 151.54 89.00 142.00
C 97.45 142.92 115.78 143.23 110.69 130.31 C 104.46 120.92 84.22 134.72 84.07 119.93 C 83.76 108.97 80.72 96.00 84.75 85.75 C 106.77 83.01 129.02 86.94 149.22 93.78 C 164.77 93.31 156.18 110.85 160.26 119.74 C 170.96 130.51 176.91 111.99 174.00 103.00
M 229.00 142.00 
C 250.68 155.19 239.18 182.08 244.92 202.08 C 257.72 211.89 258.91 192.02 259.00 184.00
C 268.24 205.78 276.22 228.20 279.00 252.00
C 252.25 225.39 223.67 198.90 199.03 170.97 C 198.96 152.98 199.02 134.99 199.00 117.00
C 205.33 121.67 216.51 125.01 214.00 135.00 C 215.89 144.40 209.53 158.34 218.70 164.30 C 231.60 167.52 229.03 150.27 229.00 142.00
M 344.00 338.00 
C 340.40 339.59 333.53 339.71 330.00 338.00
C 309.15 318.31 289.24 297.41 268.75 277.25 C 257.35 269.94 248.91 247.26 234.00 254.00
C 229.39 266.20 245.67 272.00 251.00 281.00
C 213.77 275.79 176.78 261.91 148.00 237.00
C 149.60 234.74 159.37 236.61 164.00 236.00
C 172.05 234.92 171.22 221.77 163.00 222.00
C 152.32 220.71 139.10 224.60 130.00 220.00
C 125.22 213.66 119.59 208.01 116.00 201.00
C 132.00 201.00 148.00 201.00 164.00 201.00 C 176.73 199.57 182.47 214.66 191.75 221.25 C 200.90 227.62 207.29 244.22 220.00 240.00
C 228.51 228.71 209.87 221.31 204.25 212.75 C 187.44 196.27 171.13 178.96 154.00 163.00
C 154.22 159.46 158.74 158.07 160.00 155.00
C 222.25 214.09 283.12 276.95 344.00 338.00 Z"/>
</g>
<g fill="#000000" fill-opacity="0.00" stroke="None">
<path d="
M 408.00 155.00 
C 408.00 161.67 408.00 168.33 408.00 175.00
C 421.00 179.98 412.67 198.79 414.92 209.92 C 411.34 219.31 400.53 223.46 395.00 232.00
C 406.08 241.81 419.78 252.12 415.00 269.00 C 415.00 326.00 415.00 383.00 415.00 440.00 C 420.70 471.17 406.73 507.89 373.00 512.00
L 512.00 512.00
L 512.00 0.00
L 452.00 0.00
C 473.68 2.49 494.76 21.89 494.00 46.00 C 500.27 64.33 482.07 69.00 474.00 82.00
C 481.24 86.68 487.98 93.93 493.22 100.78 C 493.13 111.02 497.85 125.64 489.69 133.69 C 465.50 136.72 439.78 134.14 415.00 135.00
C 415.04 142.35 416.70 152.98 408.00 155.00 Z"/>
</g>
<g fill="#FCEEAD" fill-opacity="1.00" stroke="None">
<path d="
M 287.00 216.00 
C 307.33 216.00 327.67 216.00 348.00 216.00
C 340.91 207.11 359.30 200.39 364.25 193.25 C 372.52 181.96 365.85 164.70 368.00 151.00 C 368.64 105.74 366.70 59.84 369.00 15.00
C 293.34 15.01 217.67 14.99 142.01 15.01 C 119.55 15.52 107.83 39.38 112.00 60.00 C 107.78 75.59 126.88 70.62 135.93 74.07 C 154.82 78.99 173.23 85.36 190.77 94.23 C 201.06 99.99 214.39 95.65 226.00 97.00 C 263.67 97.00 301.33 97.00 339.00 97.00 C 347.86 97.72 369.50 92.61 363.92 107.92 C 356.19 116.15 341.60 110.18 331.00 112.00 C 293.82 112.67 255.43 110.67 219.00 113.00
C 227.45 117.94 234.08 125.75 241.25 132.75 C 250.82 141.76 266.75 134.81 279.00 137.00 C 306.54 137.72 334.88 135.56 361.92 138.08 C 373.22 151.82 349.81 154.07 340.00 152.00 C 312.33 152.00 284.67 152.00 257.00 152.00
C 261.63 160.34 267.71 168.08 271.00 177.00
C 287.33 177.00 303.67 177.00 320.00 177.00 C 334.27 179.48 353.90 171.79 364.67 181.33 C 365.27 199.78 338.84 189.22 327.00 192.00 C 310.67 192.00 294.33 192.00 278.00 192.00
C 281.92 199.69 283.84 208.03 287.00 216.00
M 361.00 57.00 
C 373.40 67.91 354.41 75.84 344.00 72.00 C 290.01 71.48 235.38 73.04 181.78 71.22 C 167.34 61.04 187.61 52.99 198.00 57.00 C 252.33 57.00 306.67 57.00 361.00 57.00 Z"/>
</g>
<g fill="#FEDF7C" fill-opacity="1.00" stroke="None">
<path d="
M 348.00 216.00 
C 348.25 216.25 348.77 216.95 349.00 217.00
C 357.87 214.27 370.32 219.95 363.00 230.00
C 373.11 237.50 365.76 253.02 368.00 264.00 C 367.33 289.50 369.33 316.32 367.00 341.00
C 368.38 343.32 368.55 346.69 367.00 349.00
C 369.33 374.43 367.34 401.82 368.00 428.00 C 370.82 449.66 363.68 475.24 341.00 482.00
C 355.44 506.73 395.68 498.28 399.67 470.67 C 400.44 404.27 399.78 337.53 400.00 271.00 C 404.70 255.48 390.41 249.16 381.75 239.25 C 369.58 229.26 387.52 218.41 394.75 211.75 C 408.23 203.78 390.66 178.42 408.00 175.00
C 408.00 168.33 408.00 161.67 408.00 155.00
C 392.11 148.35 403.40 123.38 400.00 109.00 C 402.81 77.51 391.77 40.85 412.00 15.00
C 397.67 15.00 383.33 15.00 369.00 15.00
C 366.70 59.84 368.64 105.74 368.00 151.00 C 365.85 164.70 372.52 181.96 364.25 193.25 C 359.30 200.39 340.91 207.11 348.00 216.00 Z"/>
</g>
<g fill="#FDCE63" fill-opacity="1.00" stroke="None">
<path d="
M 479.00 120.00 
C 486.41 99.67 456.87 95.69 457.08 78.08 C 465.44 64.56 486.90 56.64 477.92 37.08 C 472.71 21.08 454.46 11.18 438.22 16.22 C 398.54 33.05 420.79 85.95 415.00 120.00
C 436.33 120.00 457.67 120.00 479.00 120.00 Z"/>
</g>
<g fill="#000000" fill-opacity="1.00" stroke="None">
<path d="
M 361.00 57.00 
C 306.67 57.00 252.33 57.00 198.00 57.00 C 187.61 52.99 167.34 61.04 181.78 71.22 C 235.38 73.04 290.01 71.48 344.00 72.00 C 354.41 75.84 373.40 67.91 361.00 57.00 Z"/>
</g>
<g fill="#8C716C" fill-opacity="1.00" stroke="None">
<path d="
M 174.00 103.00 
C 176.91 111.99 170.96 130.51 160.26 119.74 C 156.18 110.85 164.77 93.31 149.22 93.78 C 129.02 86.94 106.77 83.01 84.75 85.75 C 80.72 96.00 83.76 108.97 84.07 119.93 C 84.22 134.72 104.46 120.92 110.69 130.31 C 115.78 143.23 97.45 142.92 89.00 142.00
C 91.25 151.54 94.68 160.66 98.23 169.77 C 101.76 179.43 106.07 190.09 119.00 186.00 C 131.00 186.00 143.00 186.00 155.00 186.00
C 149.49 176.96 135.21 171.85 136.03 160.03 C 140.79 151.51 149.65 141.36 159.00 138.00 C 170.20 138.10 175.14 151.53 184.00 157.00
C 184.00 146.33 184.00 135.67 184.00 125.00 C 184.73 115.41 185.51 104.83 174.00 103.00 Z"/>
</g>
<g fill="#F6F3F3" fill-opacity="1.00" stroke="None">
<path d="
M 229.00 142.00 
C 229.03 150.27 231.60 167.52 218.70 164.30 C 209.53 158.34 215.89 144.40 214.00 135.00 C 216.51 125.01 205.33 121.67 199.00 117.00
C 199.02 134.99 198.96 152.98 199.03 170.97 C 223.67 198.90 252.25 225.39 279.00 252.00
C 276.22 228.20 268.24 205.78 259.00 184.00
C 258.91 192.02 257.72 211.89 244.92 202.08 C 239.18 182.08 250.68 155.19 229.00 142.00 Z"/>
</g>
<g fill="#BEB6B1" fill-opacity="1.00" stroke="None">
<path d="
M 220.00 240.00 
C 224.99 244.18 229.89 249.04 234.00 254.00
C 248.91 247.26 257.35 269.94 268.75 277.25 C 289.24 297.41 309.15 318.31 330.00 338.00
C 334.67 338.00 339.33 338.00 344.00 338.00
C 283.12 276.95 222.25 214.09 160.00 155.00
C 158.74 158.07 154.22 159.46 154.00 163.00
C 171.13 178.96 187.44 196.27 204.25 212.75 C 209.87 221.31 228.51 228.71 220.00 240.00 Z"/>
</g>
<g fill="#F6F3F3" fill-opacity="1.00" stroke="None">
<path d="
M 130.00 220.00 
C 140.34 222.96 153.07 219.03 163.00 222.00
C 171.22 221.77 172.05 234.92 164.00 236.00
C 159.58 238.25 153.18 236.39 148.00 237.00
C 176.78 261.91 213.77 275.79 251.00 281.00
C 245.67 272.00 229.39 266.20 234.00 254.00
C 229.89 249.04 224.99 244.18 220.00 240.00
C 207.29 244.22 200.90 227.62 191.75 221.25 C 182.47 214.66 176.73 199.57 164.00 201.00 C 148.00 201.00 132.00 201.00 116.00 201.00
C 119.59 208.01 125.22 213.66 130.00 220.00 Z"/>
</g>
<g fill="#BBB080" fill-opacity="1.00" stroke="None">
<path d="
M 349.00 217.00 
C 348.77 216.95 348.25 216.25 348.00 216.00
C 327.67 216.00 307.33 216.00 287.00 216.00
C 306.68 218.33 328.50 216.33 349.00 217.00 Z"/>
</g>
<g fill="#828080" fill-opacity="1.00" stroke="None">
<path d="
M 163.00 222.00 
C 153.07 219.03 140.34 222.96 130.00 220.00
C 139.10 224.60 152.32 220.71 163.00 222.00 Z"/>
</g>
<g fill="#FDEEAD" fill-opacity="1.00" stroke="None">
<path d="
M 133.00 384.00 
C 139.67 384.00 146.33 384.00 153.00 384.00
C 160.17 369.77 182.47 380.18 196.00 377.00 C 211.43 372.47 216.08 390.55 227.00 396.00
C 235.58 388.35 242.43 373.76 256.00 377.00 C 272.00 377.00 288.00 377.00 304.00 377.00 C 316.45 377.58 340.18 371.77 336.00 392.00 C 338.54 421.74 330.45 454.45 341.00 482.00
C 363.68 475.24 370.82 449.66 368.00 428.00 C 367.34 401.82 369.33 374.43 367.00 349.00
C 357.18 357.61 340.57 350.85 328.00 353.00 C 286.49 350.71 243.92 352.64 202.00 352.00 C 192.17 353.94 168.56 352.21 179.93 337.93 C 221.45 335.77 264.06 337.62 306.00 337.00
C 296.70 326.54 286.07 316.89 276.25 306.75 C 265.86 290.75 245.56 298.09 230.22 292.78 C 214.82 289.17 199.46 284.72 185.08 277.92 C 175.10 266.60 140.80 280.60 149.00 258.00
C 135.89 248.20 121.98 236.82 113.00 223.00
C 110.67 235.01 112.67 249.17 112.00 262.00 C 114.13 273.48 107.13 288.76 116.75 297.25 C 122.23 305.19 135.37 308.77 133.97 319.97 C 130.96 329.08 120.73 333.52 114.75 340.75 C 108.57 350.83 113.66 365.21 112.00 377.00
C 119.06 377.99 132.71 373.32 133.00 384.00
M 213.00 297.00 
C 226.12 309.30 204.46 315.25 194.00 312.00 C 180.01 311.48 165.38 313.04 151.78 311.22 C 137.15 299.60 159.55 293.54 170.00 297.00 C 184.33 297.00 198.67 297.00 213.00 297.00 Z"/>
</g>
<g fill="#FDEEAD" fill-opacity="1.00" stroke="None">
<path d="
M 367.00 341.00 
C 369.33 316.32 367.33 289.50 368.00 264.00 C 365.76 253.02 373.11 237.50 363.00 230.00
C 340.03 234.56 314.84 230.75 291.00 232.00
C 291.70 240.43 293.98 248.43 294.00 257.00
C 306.67 257.00 319.33 257.00 332.00 257.00 C 342.47 259.28 358.62 251.84 365.00 262.00 C 365.80 277.01 346.48 270.70 337.00 272.00 C 324.33 272.00 311.67 272.00 299.00 272.00
C 320.95 295.45 345.00 317.50 367.00 341.00 Z"/>
</g>
<g fill="#747373" fill-opacity="1.00" stroke="None">
<path d="
M 148.00 237.00 
C 153.18 236.39 159.58 238.25 164.00 236.00
C 159.37 236.61 149.60 234.74 148.00 237.00 Z"/>
</g>
<g fill="#000000" fill-opacity="1.00" stroke="None">
<path d="
M 213.00 297.00 
C 198.67 297.00 184.33 297.00 170.00 297.00 C 159.55 293.54 137.15 299.60 151.78 311.22 C 165.38 313.04 180.01 311.48 194.00 312.00 C 204.46 315.25 226.12 309.30 213.00 297.00 Z"/>
</g>
<g fill="#686361" fill-opacity="1.00" stroke="None">
<path d="
M 344.00 338.00 
C 339.33 338.00 334.67 338.00 330.00 338.00
C 333.53 339.71 340.40 339.59 344.00 338.00 Z"/>
</g>
<g fill="#FECF64" fill-opacity="1.00" stroke="None">
<path d="
M 153.00 384.00 
C 146.33 384.00 139.67 384.00 133.00 384.00
C 126.78 400.22 101.25 388.39 87.00 392.00 C 69.00 392.00 51.00 392.00 33.00 392.00
C 33.45 418.72 32.11 445.90 33.67 472.33 C 38.71 498.21 68.36 498.85 90.00 497.00 C 171.00 497.00 252.00 497.00 333.00 497.00
C 311.25 467.76 324.75 426.93 321.00 392.00
C 302.67 392.00 284.33 392.00 266.00 392.00 C 249.11 386.97 242.36 403.64 231.69 412.69 C 216.74 418.88 211.24 398.19 200.00 392.00 C 185.20 388.54 160.76 399.99 153.00 384.00 Z"/>
</g>
</svg>